<svg id="svg" version="1.1" xmlns="http://www.w3.org/2000/svg" xmlns:xlink="http://www.w3.org/1999/xlink"  aria-hidden="true" role="img" class="iconify iconify--logos" width="31.88" height="32" preserveAspectRatio="xMidYMid meet" viewBox="0 0 256 257"><g id="svgg"><path id="path0" d="M244.068 47.085 C 243.984 47.221,244.433 47.283,245.065 47.224 C 246.996 47.041,247.223 46.913,245.686 46.875 C 244.880 46.855,244.152 46.950,244.068 47.085 M177.803 49.836 C 177.534 51.270,177.854 54.445,178.283 54.588 C 178.462 54.647,178.529 55.016,178.431 55.406 C 178.326 55.825,178.439 56.302,178.706 56.569 C 178.955 56.818,179.255 57.459,179.372 57.994 C 179.490 58.528,179.858 59.279,180.191 59.663 C 180.524 60.047,180.796 60.550,180.796 60.782 C 180.796 61.013,180.945 61.202,181.127 61.202 C 181.309 61.202,181.371 61.343,181.265 61.514 C 181.158 61.686,181.198 61.827,181.353 61.827 C 181.508 61.827,181.803 62.389,182.008 63.076 C 182.214 63.763,182.529 64.325,182.708 64.325 C 182.888 64.325,182.977 64.497,182.906 64.708 C 182.836 64.919,183.025 65.356,183.326 65.679 C 183.627 66.002,183.805 66.444,183.722 66.661 C 183.639 66.877,183.756 67.248,183.983 67.485 C 184.209 67.722,184.565 68.302,184.774 68.774 C 184.983 69.247,185.313 69.633,185.507 69.633 C 185.701 69.633,185.778 69.844,185.679 70.101 C 185.581 70.359,185.601 70.570,185.726 70.570 C 185.850 70.570,186.151 71.027,186.394 71.585 C 186.636 72.143,187.170 72.916,187.580 73.303 C 187.990 73.691,188.239 74.147,188.133 74.318 C 188.028 74.489,188.084 74.629,188.257 74.629 C 188.431 74.629,188.819 75.156,189.120 75.800 C 189.421 76.444,189.919 77.155,190.228 77.379 C 190.536 77.604,190.788 77.946,190.788 78.141 C 190.788 78.336,191.377 79.028,192.096 79.679 C 192.816 80.330,193.436 81.081,193.476 81.350 C 193.556 81.896,195.039 83.162,195.715 83.261 C 195.956 83.297,196.187 83.371,196.227 83.427 C 196.266 83.483,196.614 83.985,197.000 84.543 C 197.385 85.101,197.972 85.558,198.304 85.558 C 198.636 85.558,198.907 85.759,198.907 86.005 C 198.907 86.252,199.193 86.543,199.542 86.654 C 199.891 86.765,200.517 87.196,200.933 87.612 C 201.349 88.028,201.906 88.368,202.172 88.368 C 202.437 88.368,202.654 88.524,202.654 88.714 C 202.654 88.904,202.865 88.979,203.123 88.880 C 203.380 88.781,203.591 88.834,203.591 88.997 C 203.591 89.160,203.977 89.388,204.450 89.503 C 204.922 89.619,205.387 89.832,205.482 89.977 C 205.578 90.122,206.937 90.331,208.502 90.442 C 210.914 90.613,211.371 90.733,211.500 91.224 C 211.583 91.543,211.520 91.803,211.361 91.803 C 211.201 91.803,211.081 92.330,211.093 92.974 C 211.123 94.466,210.205 101.127,209.856 101.952 C 209.710 102.295,209.354 103.755,209.064 105.196 C 208.775 106.637,208.416 108.042,208.266 108.318 C 207.940 108.922,203.325 118.549,202.935 119.438 C 202.785 119.781,202.440 121.678,202.169 123.653 C 201.898 125.628,201.600 127.806,201.506 128.493 C 201.412 129.180,201.237 131.358,201.116 133.333 C 200.995 135.308,200.870 136.708,200.839 136.444 C 200.807 136.180,200.493 135.407,200.141 134.726 C 199.790 134.046,199.071 132.506,198.543 131.304 C 196.702 127.105,195.030 123.358,194.223 121.624 C 193.903 120.937,193.547 119.988,193.430 119.516 C 193.314 119.044,193.109 118.657,192.974 118.657 C 192.840 118.657,192.635 118.271,192.519 117.799 C 191.625 114.167,187.833 107.597,182.902 101.141 C 182.431 100.524,182.045 99.810,182.045 99.555 C 182.045 99.300,181.705 98.909,181.290 98.686 C 180.864 98.458,180.604 98.098,180.696 97.860 C 180.790 97.613,180.525 97.287,180.056 97.073 C 179.615 96.872,179.321 96.601,179.402 96.470 C 179.663 96.047,179.167 95.197,178.752 95.357 C 178.531 95.441,178.272 95.309,178.178 95.062 C 177.892 94.318,177.075 94.557,176.851 95.451 C 176.735 95.912,176.452 96.650,176.222 97.091 C 175.992 97.532,175.803 98.040,175.802 98.221 C 175.794 99.601,173.798 100.515,170.336 100.726 C 168.447 100.841,166.479 101.119,165.964 101.344 C 165.449 101.569,164.328 101.983,163.474 102.263 C 162.619 102.543,161.776 102.891,161.600 103.037 C 160.664 103.809,158.939 103.743,157.822 102.892 C 157.211 102.426,156.627 102.129,156.524 102.232 C 156.421 102.336,156.487 102.420,156.671 102.420 C 156.879 102.420,156.944 102.876,156.843 103.629 C 156.746 104.351,156.821 104.924,157.029 105.052 C 157.220 105.170,157.377 105.540,157.377 105.873 C 157.377 106.207,157.502 106.479,157.655 106.479 C 157.807 106.479,157.913 106.655,157.890 106.870 C 157.826 107.457,158.992 113.146,159.249 113.505 C 159.372 113.677,159.647 114.731,159.860 115.847 C 160.072 116.963,160.353 118.017,160.484 118.189 C 160.615 118.361,160.893 119.204,161.102 120.062 C 161.312 120.921,161.673 122.045,161.904 122.560 C 162.136 123.076,162.770 124.551,163.314 125.839 C 163.858 127.127,164.571 128.752,164.899 129.451 C 165.227 130.149,165.496 130.825,165.496 130.953 C 165.496 131.227,166.889 134.351,167.577 135.619 C 168.269 136.894,167.926 136.964,165.896 135.958 C 161.834 133.946,158.338 130.612,153.485 124.122 C 151.107 120.942,149.603 119.040,146.821 115.691 C 145.822 114.489,144.737 113.048,144.410 112.490 C 144.083 111.932,143.635 111.475,143.414 111.475 C 143.194 111.475,143.013 111.199,143.013 110.862 C 143.013 110.517,142.556 109.936,141.970 109.535 C 141.396 109.142,140.982 108.658,141.050 108.458 C 141.118 108.258,140.674 107.696,140.064 107.209 C 139.453 106.722,138.954 106.179,138.954 106.002 C 138.954 105.826,138.532 105.220,138.017 104.656 C 137.502 104.092,137.080 103.507,137.080 103.355 C 137.080 103.204,136.656 102.829,136.137 102.523 C 135.619 102.216,135.263 101.787,135.347 101.568 C 135.431 101.350,135.399 101.171,135.275 101.170 C 135.152 101.170,134.775 100.758,134.439 100.255 C 134.102 99.753,133.715 99.410,133.580 99.494 C 133.444 99.578,133.333 99.442,133.333 99.192 C 133.333 98.943,132.984 98.408,132.558 98.003 C 132.132 97.599,131.780 97.108,131.777 96.913 C 131.774 96.718,131.421 96.329,130.991 96.047 C 130.562 95.766,130.211 95.324,130.211 95.065 C 130.211 94.806,130.005 94.515,129.754 94.419 C 129.503 94.322,129.218 93.991,129.120 93.683 C 128.949 93.146,128.095 92.062,126.770 90.699 C 126.430 90.350,126.151 89.890,126.151 89.678 C 126.151 89.466,125.811 89.137,125.396 88.947 C 124.978 88.757,124.709 88.422,124.795 88.197 C 124.881 87.974,124.659 87.636,124.302 87.445 C 123.945 87.254,123.653 86.890,123.653 86.637 C 123.653 86.384,123.372 85.936,123.029 85.642 C 122.685 85.348,122.404 84.928,122.404 84.708 C 122.404 84.489,122.182 84.309,121.910 84.309 C 121.638 84.309,121.473 84.137,121.543 83.926 C 121.696 83.469,119.301 80.877,118.726 80.876 C 118.505 80.875,118.241 80.655,118.139 80.388 C 118.036 80.121,117.771 79.971,117.550 80.056 C 117.329 80.141,117.070 80.008,116.976 79.762 C 116.881 79.515,116.588 79.313,116.325 79.313 C 116.062 79.313,115.847 79.186,115.847 79.031 C 115.847 78.876,115.425 78.603,114.910 78.423 C 114.395 78.243,113.973 77.975,113.973 77.826 C 113.973 77.678,113.480 77.363,112.877 77.126 C 112.275 76.890,111.569 76.372,111.309 75.975 C 111.049 75.578,110.641 75.254,110.401 75.254 C 110.162 75.254,109.908 75.079,109.837 74.866 C 109.744 74.587,109.558 74.629,109.170 75.016 C 108.598 75.588,108.737 79.313,109.330 79.313 C 109.480 79.313,109.603 79.910,109.604 80.640 C 109.606 82.408,110.145 85.623,110.476 85.847 C 110.622 85.946,110.925 86.694,111.149 87.510 C 111.373 88.326,111.665 88.993,111.797 88.993 C 111.929 88.993,112.290 89.696,112.599 90.554 C 112.907 91.413,113.273 92.116,113.411 92.116 C 113.548 92.116,113.661 92.319,113.661 92.568 C 113.661 92.817,113.995 93.380,114.402 93.819 C 114.809 94.259,115.319 95.250,115.535 96.021 C 115.751 96.793,116.050 97.424,116.200 97.424 C 116.349 97.424,116.472 97.635,116.472 97.892 C 116.472 98.150,116.736 98.625,117.060 98.949 C 117.383 99.273,117.812 100.033,118.012 100.639 C 118.212 101.245,118.553 101.808,118.769 101.891 C 118.986 101.975,119.334 102.611,119.542 103.305 C 119.761 104.037,120.165 104.646,120.501 104.753 C 120.821 104.854,121.077 105.108,121.070 105.318 C 121.035 106.358,121.198 106.792,121.624 106.792 C 121.885 106.792,122.092 107.069,122.092 107.419 C 122.092 107.764,122.373 108.287,122.717 108.581 C 123.060 108.876,123.341 109.300,123.341 109.525 C 123.341 109.750,123.560 110.018,123.827 110.120 C 124.095 110.223,124.240 110.500,124.150 110.735 C 124.059 110.971,124.129 111.163,124.304 111.163 C 124.479 111.163,124.770 111.585,124.949 112.100 C 125.129 112.615,125.385 113.037,125.520 113.037 C 125.654 113.037,125.934 113.448,126.142 113.951 C 126.350 114.454,126.719 114.941,126.961 115.034 C 127.203 115.127,127.400 115.418,127.400 115.681 C 127.400 115.944,127.626 116.159,127.902 116.159 C 128.220 116.159,128.338 116.331,128.224 116.628 C 128.125 116.885,128.164 117.096,128.309 117.096 C 128.455 117.096,128.748 117.518,128.962 118.033 C 129.175 118.548,129.543 118.970,129.780 118.970 C 130.017 118.970,130.211 119.110,130.211 119.282 C 130.211 119.454,130.430 119.840,130.698 120.141 C 130.965 120.441,131.885 121.600,132.741 122.717 C 138.211 129.846,146.918 138.351,149.653 139.235 C 149.865 139.304,150.109 139.461,150.195 139.585 C 150.579 140.139,153.643 141.434,155.347 141.761 C 156.378 141.960,157.713 142.263,158.314 142.436 C 159.267 142.709,166.595 142.642,169.382 142.334 C 170.137 142.251,170.388 142.400,170.787 143.169 C 171.054 143.685,171.359 144.176,171.465 144.262 C 171.570 144.348,171.762 144.770,171.890 145.199 C 172.018 145.628,173.073 147.947,174.233 150.351 C 175.394 152.756,177.087 156.269,177.997 158.158 C 178.906 160.047,180.189 162.485,180.848 163.576 C 181.506 164.667,182.045 165.674,182.045 165.814 C 182.045 165.954,182.151 166.115,182.279 166.172 C 182.408 166.230,182.980 167.190,183.550 168.306 C 185.182 171.503,185.944 172.821,186.836 173.991 C 187.293 174.589,187.666 175.295,187.666 175.560 C 187.666 175.824,188.022 176.274,188.456 176.559 C 188.891 176.844,189.167 177.206,189.069 177.365 C 188.971 177.524,189.177 177.832,189.527 178.051 C 189.877 178.270,190.164 178.622,190.164 178.835 C 190.164 179.047,190.515 179.451,190.945 179.732 C 191.374 180.013,191.725 180.440,191.725 180.679 C 191.725 180.919,192.006 181.355,192.350 181.649 C 192.693 181.943,192.974 182.366,192.974 182.588 C 192.974 182.810,193.395 183.247,193.910 183.560 C 194.424 183.873,194.752 184.223,194.637 184.338 C 194.427 184.548,194.549 184.710,196.468 186.772 C 197.050 187.397,197.474 188.062,197.411 188.251 C 197.348 188.439,197.648 188.754,198.077 188.949 C 198.537 189.159,198.790 189.480,198.694 189.732 C 198.604 189.967,198.756 190.245,199.032 190.351 C 199.309 190.457,199.772 191.056,200.063 191.681 C 200.353 192.306,200.774 192.930,200.998 193.068 C 201.222 193.205,201.405 193.516,201.405 193.759 C 201.405 194.002,201.675 194.346,202.004 194.522 C 202.334 194.698,202.696 195.265,202.810 195.782 C 202.923 196.299,203.216 196.721,203.460 196.721 C 203.704 196.721,203.903 196.932,203.903 197.190 C 203.903 197.447,204.052 197.658,204.234 197.658 C 204.416 197.658,204.482 197.792,204.380 197.956 C 204.114 198.386,204.542 199.872,204.873 199.667 C 205.027 199.572,205.152 199.773,205.152 200.112 C 205.152 200.452,205.237 200.950,205.340 201.219 C 205.465 201.544,205.281 201.812,204.794 202.015 C 203.589 202.517,202.984 203.133,202.602 204.251 C 202.403 204.832,202.120 205.388,201.973 205.486 C 201.826 205.584,201.553 206.533,201.366 207.594 C 201.179 208.655,200.918 209.524,200.785 209.524 C 200.653 209.524,200.367 209.951,200.151 210.473 C 199.935 210.994,199.486 211.567,199.152 211.745 C 198.819 211.924,198.616 212.252,198.702 212.475 C 198.789 212.701,198.515 213.037,198.085 213.233 C 197.660 213.426,197.178 213.971,197.014 214.443 C 196.849 214.915,196.297 215.581,195.787 215.923 C 195.277 216.266,194.690 216.969,194.481 217.485 C 194.273 218.001,194.003 218.493,193.882 218.579 C 193.760 218.665,193.612 219.015,193.552 219.356 C 193.492 219.697,193.148 220.259,192.788 220.605 C 192.427 220.951,192.193 221.409,192.267 221.624 C 192.341 221.838,192.240 222.014,192.041 222.014 C 191.535 222.014,190.773 222.831,191.035 223.093 C 191.154 223.212,191.007 223.447,190.708 223.614 C 190.409 223.782,190.164 224.045,190.164 224.199 C 190.164 224.354,189.813 224.859,189.383 225.322 C 188.954 225.786,188.603 226.340,188.603 226.554 C 188.603 226.768,188.377 227.030,188.102 227.136 C 187.800 227.251,187.677 227.524,187.791 227.822 C 187.918 228.154,187.768 228.373,187.337 228.485 C 186.978 228.579,186.762 228.831,186.848 229.055 C 186.933 229.276,186.800 229.534,186.553 229.629 C 186.307 229.723,186.105 230.016,186.105 230.279 C 186.105 230.542,185.966 230.757,185.797 230.757 C 185.627 230.757,185.283 231.249,185.032 231.850 C 184.781 232.451,184.412 232.943,184.214 232.943 C 184.015 232.943,183.935 233.159,184.036 233.423 C 184.141 233.696,184.021 233.980,183.757 234.081 C 183.503 234.179,183.294 234.525,183.294 234.850 C 183.294 235.185,183.077 235.441,182.793 235.441 C 182.488 235.441,182.357 235.615,182.461 235.884 C 182.554 236.127,182.428 236.404,182.182 236.498 C 181.935 236.593,181.733 236.886,181.733 237.149 C 181.733 237.412,181.589 237.627,181.413 237.627 C 181.237 237.627,180.959 237.978,180.796 238.407 C 180.633 238.837,180.360 239.188,180.189 239.188 C 180.019 239.188,179.960 239.399,180.059 239.657 C 180.158 239.914,180.075 240.125,179.874 240.125 C 179.674 240.125,179.584 240.244,179.674 240.390 C 179.764 240.536,179.548 240.966,179.193 241.347 C 178.813 241.755,178.613 242.287,178.706 242.643 C 178.793 242.976,178.722 243.247,178.548 243.247 C 178.368 243.247,178.284 243.784,178.352 244.496 C 178.417 245.183,178.381 245.746,178.271 245.746 C 177.969 245.746,177.634 248.642,177.906 248.906 C 178.201 249.194,181.109 248.545,181.109 248.191 C 181.109 248.048,181.590 247.931,182.179 247.931 C 182.768 247.931,183.454 247.727,183.703 247.478 C 183.953 247.228,184.235 247.103,184.331 247.198 C 184.579 247.446,190.788 241.121,190.788 240.620 C 190.788 240.392,191.284 239.871,191.889 239.463 C 192.495 239.054,193.070 238.411,193.168 238.034 C 193.266 237.656,193.684 237.126,194.097 236.855 C 194.510 236.585,194.848 236.171,194.848 235.936 C 194.848 235.700,195.073 235.421,195.349 235.316 C 195.624 235.210,195.773 234.926,195.681 234.684 C 195.588 234.442,195.714 234.166,195.960 234.072 C 196.207 233.977,196.409 233.684,196.409 233.421 C 196.409 233.158,196.553 232.943,196.729 232.943 C 196.905 232.943,197.183 232.592,197.346 232.162 C 197.509 231.733,197.781 231.382,197.950 231.382 C 198.119 231.382,198.426 230.820,198.632 230.133 C 198.838 229.446,199.120 228.884,199.259 228.884 C 199.398 228.884,199.431 228.673,199.332 228.415 C 199.233 228.158,199.316 227.947,199.517 227.947 C 199.717 227.947,199.794 227.806,199.688 227.635 C 199.582 227.463,199.644 227.322,199.825 227.322 C 200.007 227.322,200.156 227.122,200.156 226.876 C 200.156 226.631,200.347 226.239,200.580 226.006 C 200.813 225.773,201.193 225.060,201.424 224.423 C 201.654 223.785,201.965 223.263,202.113 223.263 C 202.262 223.263,202.295 222.982,202.186 222.639 C 202.074 222.285,202.130 222.014,202.315 222.014 C 202.495 222.014,202.730 221.663,202.838 221.233 C 202.946 220.804,203.176 220.453,203.349 220.453 C 203.522 220.453,203.590 220.172,203.500 219.828 C 203.411 219.485,203.449 219.204,203.586 219.204 C 203.723 219.204,203.925 218.847,204.034 218.411 C 204.231 217.627,204.260 217.620,206.515 217.825 C 208.064 217.965,209.022 217.911,209.499 217.656 C 210.495 217.123,210.509 217.170,210.673 221.604 C 210.755 223.804,210.902 225.816,211.001 226.073 C 211.100 226.331,211.146 227.420,211.104 228.493 C 211.058 229.671,211.155 230.445,211.349 230.445 C 211.542 230.445,211.599 230.882,211.493 231.538 C 211.385 232.206,211.443 232.631,211.644 232.631 C 211.825 232.631,212.065 233.052,212.178 233.568 C 212.291 234.083,212.528 234.504,212.705 234.504 C 212.881 234.504,212.945 234.715,212.846 234.973 C 212.747 235.230,212.802 235.441,212.968 235.441 C 213.135 235.441,213.271 235.652,213.271 235.909 C 213.271 236.167,213.517 236.626,213.817 236.929 C 214.398 237.514,215.286 239.198,215.205 239.560 C 215.178 239.679,215.540 240.064,216.009 240.416 C 216.478 240.767,217.005 241.172,217.181 241.316 C 217.356 241.460,217.672 241.520,217.883 241.450 C 218.094 241.380,218.352 241.544,218.456 241.816 C 218.667 242.364,219.992 242.492,220.300 241.993 C 220.408 241.819,220.631 241.759,220.795 241.861 C 221.155 242.083,222.610 240.582,223.263 239.316 C 223.521 238.816,223.902 238.227,224.110 238.007 C 224.317 237.787,224.577 237.129,224.687 236.546 C 224.796 235.962,225.069 235.414,225.294 235.328 C 225.519 235.242,225.803 234.710,225.927 234.147 C 226.051 233.585,226.428 232.594,226.765 231.947 C 227.103 231.300,227.316 230.592,227.239 230.373 C 227.162 230.155,227.373 229.585,227.708 229.107 C 228.043 228.628,228.239 228.031,228.142 227.780 C 228.045 227.528,228.119 227.322,228.305 227.322 C 228.499 227.322,228.580 226.985,228.494 226.534 C 228.411 226.101,228.458 225.675,228.599 225.588 C 228.740 225.501,228.950 224.588,229.067 223.559 C 229.183 222.530,229.400 221.612,229.549 221.520 C 229.938 221.280,229.898 211.397,229.508 211.397 C 229.336 211.397,229.196 210.879,229.196 210.245 C 229.196 208.679,228.510 205.464,228.176 205.464 C 228.027 205.464,227.994 205.183,228.103 204.840 C 228.212 204.496,228.164 204.215,227.995 204.215 C 227.827 204.215,227.595 203.653,227.479 202.966 C 227.362 202.279,227.137 201.717,226.977 201.717 C 226.817 201.717,226.774 201.366,226.882 200.937 C 227.001 200.460,226.945 200.156,226.736 200.156 C 226.548 200.156,226.236 199.527,226.043 198.758 C 225.849 197.989,225.425 197.054,225.101 196.681 C 224.777 196.307,224.512 195.681,224.512 195.291 C 224.512 194.900,224.329 194.394,224.104 194.168 C 223.644 193.702,223.139 192.626,223.214 192.272 C 223.241 192.143,223.063 192.037,222.820 192.037 C 222.576 192.037,222.281 191.606,222.166 191.080 C 222.050 190.553,221.750 190.043,221.498 189.946 C 221.247 189.850,221.115 189.578,221.206 189.343 C 221.296 189.108,221.234 188.915,221.067 188.915 C 220.901 188.915,220.765 188.709,220.765 188.458 C 220.765 188.206,220.484 187.850,220.141 187.666 C 219.797 187.482,219.516 187.141,219.516 186.908 C 219.516 186.674,219.308 186.404,219.053 186.306 C 218.798 186.208,218.663 185.939,218.752 185.707 C 218.843 185.468,218.580 185.107,218.147 184.875 C 217.708 184.640,217.450 184.282,217.544 184.038 C 217.634 183.804,217.482 183.525,217.206 183.420 C 216.931 183.314,216.706 183.040,216.706 182.810 C 216.706 182.581,216.453 182.209,216.145 181.985 C 215.837 181.761,215.338 181.050,215.037 180.406 C 214.737 179.762,214.368 179.235,214.218 179.235 C 214.068 179.235,213.852 178.813,213.739 178.298 C 213.626 177.783,213.413 177.361,213.266 177.361 C 213.118 177.361,213.080 176.856,213.180 176.237 C 213.281 175.619,213.227 175.022,213.060 174.910 C 211.926 174.148,212.188 168.957,213.441 167.369 C 213.771 166.951,218.280 157.847,218.931 156.284 C 220.228 153.171,221.390 148.831,221.390 147.099 C 221.390 146.421,221.671 146.033,222.613 145.409 C 223.882 144.569,225.449 142.755,225.449 142.125 C 225.449 141.927,225.566 141.764,225.709 141.764 C 226.294 141.764,234.334 125.063,234.873 122.727 C 235.073 121.863,235.337 121.155,235.460 121.155 C 235.583 121.155,235.770 120.699,235.876 120.141 C 235.982 119.582,236.285 118.712,236.548 118.207 C 237.007 117.327,237.761 114.443,238.756 109.758 C 239.011 108.556,239.344 107.291,239.495 106.948 C 239.646 106.604,239.955 104.988,240.181 103.357 L 240.593 100.390 241.683 102.108 C 242.283 103.052,242.878 104.078,243.006 104.386 C 243.134 104.695,243.592 105.411,244.024 105.977 C 244.455 106.543,244.809 107.105,244.809 107.225 C 244.809 107.344,244.951 107.612,245.126 107.820 C 245.881 108.719,247.619 111.140,247.619 111.294 C 247.619 111.542,251.899 115.847,252.145 115.847 C 252.261 115.847,253.384 116.698,254.642 117.738 C 257.159 119.821,261.492 122.200,263.786 122.759 C 264.598 122.957,265.456 123.272,265.693 123.459 C 266.329 123.959,272.603 123.906,273.721 123.391 C 278.768 121.067,281.973 118.369,286.254 112.843 C 286.637 112.348,287.864 110.766,288.980 109.327 C 290.096 107.888,291.594 105.499,292.308 104.019 C 294.797 98.864,295.957 96.722,296.408 96.441 C 296.588 96.329,296.648 96.013,296.542 95.738 C 296.437 95.463,296.480 95.238,296.639 95.238 C 296.797 95.238,297.019 94.746,297.132 94.145 C 297.245 93.544,297.477 93.052,297.649 93.052 C 297.825 93.052,297.875 92.713,297.764 92.272 C 297.653 91.829,297.703 91.491,297.880 91.491 C 298.052 91.491,298.285 91.105,298.398 90.632 C 298.511 90.160,298.740 89.600,298.907 89.387 C 299.074 89.175,299.133 88.797,299.038 88.549 C 298.942 88.300,298.993 88.052,299.150 87.998 C 299.307 87.944,299.597 86.811,299.795 85.480 C 299.992 84.149,300.294 83.060,300.465 83.060 C 300.636 83.060,300.708 82.709,300.626 82.279 C 300.544 81.850,300.612 81.499,300.777 81.499 C 300.943 81.499,301.027 80.867,300.966 80.094 C 300.904 79.321,300.961 78.689,301.091 78.689 C 301.221 78.689,301.327 77.283,301.327 75.566 C 301.327 71.955,300.922 71.194,298.996 71.194 C 298.175 71.194,297.649 70.930,296.820 70.101 C 295.575 68.856,292.024 68.475,292.760 69.666 C 292.855 69.820,292.152 69.945,291.197 69.945 C 290.242 69.945,289.460 70.051,289.459 70.180 C 289.458 70.308,288.722 70.441,287.825 70.475 C 286.928 70.508,286.145 70.684,286.084 70.865 C 286.024 71.046,285.714 71.194,285.396 71.194 C 285.078 71.194,284.423 71.358,283.939 71.557 C 283.456 71.757,282.955 71.897,282.826 71.869 C 282.697 71.842,282.592 71.959,282.592 72.131 C 282.592 72.303,282.328 72.443,282.005 72.443 C 281.234 72.443,279.184 73.309,278.621 73.872 C 278.376 74.117,277.975 74.317,277.729 74.317 C 277.484 74.317,277.283 74.453,277.283 74.619 C 277.283 74.786,277.073 74.841,276.815 74.742 C 276.557 74.643,276.347 74.692,276.347 74.850 C 276.347 75.008,275.855 75.330,275.254 75.566 C 274.653 75.802,274.161 76.179,274.161 76.405 C 274.161 76.630,273.957 76.815,273.708 76.815 C 273.459 76.815,273.118 77.060,272.951 77.359 C 272.783 77.658,272.548 77.805,272.428 77.685 C 272.171 77.428,269.789 79.683,269.789 80.183 C 269.789 80.372,269.493 80.734,269.131 80.988 C 268.769 81.241,268.553 81.579,268.652 81.739 C 268.750 81.899,268.481 82.216,268.054 82.445 C 267.627 82.674,267.326 83.010,267.387 83.192 C 267.448 83.373,267.169 83.781,266.767 84.097 C 266.365 84.413,266.111 84.792,266.202 84.940 C 266.380 85.227,265.169 86.495,264.718 86.495 C 264.570 86.495,264.301 86.916,264.122 87.432 C 263.942 87.947,263.622 88.368,263.410 88.368 C 263.198 88.368,262.842 88.710,262.618 89.129 C 262.395 89.547,261.806 90.057,261.309 90.262 C 260.813 90.468,260.305 90.807,260.180 91.016 C 259.488 92.173,253.898 95.342,252.612 95.306 C 251.482 95.274,247.358 93.839,245.731 92.911 C 243.883 91.857,242.673 90.882,243.203 90.873 C 243.450 90.869,243.552 90.671,243.447 90.398 C 243.348 90.141,243.388 89.930,243.536 89.930 C 243.683 89.930,243.892 89.578,244.000 89.149 C 244.108 88.720,244.330 88.368,244.493 88.368 C 244.656 88.368,244.708 88.158,244.609 87.900 C 244.511 87.642,244.594 87.432,244.794 87.432 C 244.994 87.432,245.071 87.291,244.965 87.119 C 244.859 86.948,244.921 86.807,245.103 86.807 C 245.284 86.807,245.433 86.596,245.433 86.339 C 245.433 86.081,245.569 85.870,245.736 85.870 C 245.902 85.870,245.957 85.660,245.858 85.402 C 245.760 85.144,245.843 84.934,246.043 84.934 C 246.243 84.934,246.320 84.793,246.214 84.621 C 246.108 84.450,246.170 84.309,246.352 84.309 C 246.533 84.309,246.682 84.098,246.682 83.841 C 246.682 83.583,246.831 83.372,247.013 83.372 C 247.195 83.372,247.257 83.232,247.151 83.060 C 247.045 82.888,247.122 82.748,247.322 82.748 C 247.522 82.748,247.605 82.537,247.506 82.279 C 247.407 82.022,247.447 81.811,247.595 81.811 C 247.743 81.811,247.952 81.460,248.060 81.030 C 248.167 80.601,248.402 80.250,248.580 80.250 C 248.759 80.250,248.808 80.094,248.690 79.903 C 248.572 79.712,248.620 79.466,248.796 79.356 C 249.282 79.054,250.742 76.176,250.742 75.519 C 250.742 75.202,250.898 74.941,251.089 74.941 C 251.298 74.941,251.382 74.567,251.300 74.005 C 251.224 73.489,251.293 73.068,251.454 73.068 C 251.614 73.068,251.664 72.857,251.565 72.600 C 251.467 72.342,251.507 72.131,251.654 72.131 C 251.802 72.131,252.011 71.780,252.119 71.351 C 252.227 70.921,252.462 70.570,252.642 70.570 C 252.827 70.570,252.883 70.299,252.771 69.945 C 252.649 69.561,252.715 69.321,252.943 69.321 C 253.169 69.321,253.254 69.017,253.163 68.540 C 253.081 68.111,253.135 67.760,253.283 67.760 C 253.431 67.760,253.552 67.268,253.552 66.667 C 253.552 66.066,253.702 65.574,253.885 65.574 C 254.076 65.574,254.134 65.308,254.020 64.949 C 253.907 64.591,253.964 64.325,254.155 64.325 C 255.127 64.325,254.487 61.834,253.399 61.380 C 252.184 60.872,249.442 58.834,247.643 57.100 C 246.994 56.475,245.986 55.862,245.402 55.737 C 244.818 55.612,244.198 55.395,244.023 55.256 C 243.848 55.116,242.755 55.016,241.594 55.034 C 239.161 55.070,238.339 54.628,236.904 52.509 C 236.107 51.332,234.817 50.710,234.817 51.503 C 234.817 51.664,234.325 51.715,233.724 51.618 C 233.060 51.510,232.631 51.568,232.631 51.766 C 232.631 51.945,232.059 52.188,231.360 52.307 C 230.661 52.425,230.014 52.718,229.921 52.959 C 229.829 53.199,229.566 53.396,229.336 53.396 C 229.107 53.396,228.704 53.703,228.440 54.080 C 228.177 54.456,227.879 54.681,227.779 54.581 C 227.516 54.318,226.300 55.577,225.757 56.674 C 225.502 57.190,225.215 57.681,225.119 57.767 C 225.023 57.853,224.750 58.415,224.512 59.016 C 224.274 59.617,223.989 60.180,223.879 60.265 C 223.585 60.495,221.390 65.155,221.390 65.549 C 221.390 65.735,221.255 65.886,221.090 65.886 C 220.925 65.886,220.622 66.448,220.416 67.135 C 220.210 67.822,219.942 68.384,219.821 68.384 C 219.700 68.384,219.349 69.052,219.041 69.867 C 218.732 70.683,218.389 71.421,218.278 71.507 C 218.167 71.593,217.879 72.155,217.638 72.756 C 217.397 73.357,217.019 74.034,216.797 74.261 C 216.575 74.488,216.393 74.994,216.393 75.384 C 216.393 75.775,216.102 76.431,215.747 76.841 C 215.390 77.252,215.155 77.876,215.223 78.232 C 215.291 78.587,215.161 79.051,214.933 79.264 C 214.706 79.476,214.520 79.925,214.520 80.262 C 214.520 80.599,214.363 80.874,214.171 80.874 C 213.976 80.874,213.895 81.150,213.986 81.499 C 214.076 81.842,214.005 82.123,213.830 82.123 C 213.654 82.123,213.584 82.404,213.674 82.748 C 213.763 83.091,213.710 83.372,213.554 83.372 C 213.398 83.372,213.271 83.593,213.271 83.863 C 213.271 85.083,211.925 85.607,211.384 84.597 C 211.186 84.226,210.847 84.021,210.593 84.119 C 210.348 84.213,210.148 84.173,210.148 84.031 C 210.148 83.555,208.112 81.605,207.743 81.728 C 207.544 81.795,207.225 81.559,207.036 81.206 C 206.847 80.852,206.796 80.562,206.923 80.562 C 207.141 80.562,205.411 78.891,203.925 77.665 C 203.555 77.360,203.332 76.981,203.430 76.822 C 203.528 76.664,203.183 76.220,202.663 75.835 C 202.143 75.451,201.717 74.959,201.717 74.742 C 201.717 74.526,201.234 73.980,200.643 73.529 C 200.052 73.079,199.639 72.526,199.725 72.302 C 199.815 72.068,199.407 71.600,198.770 71.206 C 198.124 70.807,197.658 70.269,197.658 69.923 C 197.658 69.595,197.369 69.149,197.016 68.933 C 196.662 68.717,196.170 68.117,195.922 67.599 C 195.674 67.082,195.155 66.518,194.769 66.347 C 194.383 66.176,194.103 65.816,194.147 65.546 C 194.190 65.277,193.885 64.874,193.469 64.651 C 193.042 64.423,192.782 64.062,192.874 63.824 C 192.968 63.578,192.707 63.253,192.249 63.044 C 191.810 62.844,191.531 62.507,191.618 62.280 C 191.704 62.057,191.498 61.727,191.161 61.547 C 190.824 61.366,190.459 60.864,190.350 60.430 C 190.241 59.996,189.944 59.641,189.690 59.641 C 189.435 59.641,189.227 59.365,189.227 59.027 C 189.227 58.690,188.946 58.263,188.603 58.080 C 188.259 57.896,187.978 57.535,187.978 57.278 C 187.978 57.021,187.776 56.734,187.529 56.639 C 187.283 56.544,187.147 56.294,187.228 56.083 C 187.309 55.872,187.030 55.514,186.609 55.289 C 186.187 55.063,185.909 54.703,185.991 54.490 C 186.073 54.276,185.922 54.017,185.654 53.914 C 185.387 53.812,185.168 53.547,185.168 53.327 C 185.168 52.771,183.372 51.125,183.010 51.349 C 182.847 51.449,182.632 51.270,182.531 50.951 C 182.417 50.594,181.687 50.147,180.635 49.789 C 179.693 49.469,178.923 49.096,178.923 48.960 C 178.923 48.143,177.983 48.878,177.803 49.836 M243.404 49.649 L 242.467 49.887 243.307 49.924 C 243.769 49.944,244.234 49.820,244.340 49.649 C 244.447 49.477,244.490 49.353,244.437 49.373 C 244.384 49.394,243.919 49.518,243.404 49.649 M251.772 52.147 C 251.772 53.091,251.830 53.478,251.902 53.005 C 251.974 52.533,251.974 51.760,251.902 51.288 C 251.830 50.816,251.772 51.202,251.772 52.147 M169.867 87.866 C 169.867 87.933,170.359 88.045,170.960 88.115 C 171.561 88.186,172.053 88.131,172.053 87.994 C 172.053 87.856,171.561 87.744,170.960 87.744 C 170.359 87.744,169.867 87.799,169.867 87.866 M165.109 89.016 C 164.811 89.190,164.417 89.642,164.233 90.021 C 163.923 90.663,163.931 90.671,164.360 90.139 C 164.614 89.824,165.078 89.372,165.392 89.134 C 166.059 88.628,165.893 88.559,165.109 89.016 M155.816 91.924 C 155.816 91.990,156.230 92.105,156.736 92.180 C 157.242 92.254,157.585 92.200,157.498 92.059 C 157.344 91.809,155.816 91.686,155.816 91.924 " stroke="none" fill="#c3f36b" fill-rule="evenodd"></path><path id="path1" d="M182.050 63.912 C 182.059 64.391,182.635 65.088,182.846 64.877 C 182.962 64.761,182.829 64.439,182.551 64.161 C 182.273 63.883,182.047 63.771,182.050 63.912 M291.335 69.633 C 291.335 69.805,291.546 69.945,291.803 69.945 C 292.061 69.945,292.272 69.805,292.272 69.633 C 292.272 69.461,292.061 69.321,291.803 69.321 C 291.546 69.321,291.335 69.461,291.335 69.633 M244.184 92.011 C 244.184 92.556,251.110 95.264,252.614 95.306 C 253.513 95.332,259.173 92.466,259.173 91.985 C 259.173 91.971,255.800 91.959,251.678 91.959 C 247.557 91.959,244.184 91.983,244.184 92.011 M210.918 93.844 C 210.633 94.268,207.280 95.057,199.688 96.484 C 195.346 97.301,191.036 98.238,189.800 98.636 C 186.626 99.656,182.680 100.433,182.322 100.108 C 181.940 99.762,182.253 100.221,184.938 103.947 C 188.884 109.423,191.744 114.650,192.519 117.799 C 192.635 118.271,192.840 118.657,192.974 118.657 C 193.109 118.657,193.315 119.039,193.432 119.506 C 193.625 120.277,194.087 121.371,195.776 125.059 C 196.347 126.305,196.735 127.180,198.543 131.304 C 199.071 132.506,199.790 134.046,200.141 134.726 C 200.493 135.407,200.807 136.180,200.839 136.444 C 200.870 136.708,200.995 135.308,201.116 133.333 C 201.237 131.358,201.412 129.180,201.506 128.493 C 201.600 127.806,201.898 125.628,202.169 123.653 C 202.440 121.678,202.785 119.781,202.935 119.438 C 203.325 118.549,207.940 108.922,208.266 108.318 C 208.416 108.042,208.773 106.637,209.059 105.196 C 209.346 103.755,209.691 102.360,209.826 102.096 C 209.961 101.832,210.249 100.075,210.466 98.193 C 210.683 96.310,210.993 94.512,211.155 94.197 C 211.514 93.494,211.333 93.224,210.918 93.844 M295.169 98.283 C 293.818 100.910,293.555 101.437,292.308 104.019 C 291.594 105.499,290.096 107.888,288.980 109.327 C 287.864 110.766,286.637 112.348,286.254 112.843 C 281.973 118.369,278.768 121.067,273.721 123.391 C 272.603 123.906,266.329 123.959,265.693 123.459 C 265.456 123.272,264.598 122.957,263.786 122.759 C 261.492 122.200,257.159 119.821,254.642 117.738 C 253.384 116.698,252.261 115.847,252.145 115.847 C 251.899 115.847,247.619 111.542,247.619 111.294 C 247.619 111.140,245.881 108.719,245.126 107.820 C 244.951 107.612,244.809 107.344,244.809 107.225 C 244.809 107.105,244.455 106.543,244.024 105.977 C 243.592 105.411,243.134 104.695,243.006 104.386 C 242.878 104.078,242.283 103.052,241.683 102.108 L 240.593 100.390 240.181 103.357 C 239.955 104.988,239.646 106.604,239.495 106.948 C 239.344 107.291,239.011 108.556,238.756 109.758 C 237.761 114.443,237.007 117.327,236.548 118.207 C 236.285 118.712,235.982 119.582,235.876 120.141 C 235.770 120.699,235.583 121.155,235.460 121.155 C 235.337 121.155,235.073 121.863,234.873 122.727 C 234.334 125.063,226.294 141.764,225.709 141.764 C 225.566 141.764,225.449 141.927,225.449 142.125 C 225.449 142.755,223.882 144.569,222.613 145.409 C 221.671 146.033,221.390 146.421,221.390 147.099 C 221.390 148.832,220.221 153.197,218.930 156.284 C 218.075 158.330,213.520 167.372,213.265 167.529 C 213.096 167.633,212.964 167.956,212.971 168.246 C 212.980 168.609,213.126 168.512,213.439 167.935 C 213.803 167.266,214.197 167.055,215.379 166.896 C 216.194 166.787,217.916 166.419,219.204 166.078 C 220.492 165.737,222.319 165.398,223.263 165.325 C 224.208 165.251,226.245 165.053,227.791 164.886 C 229.336 164.718,232.906 164.500,235.724 164.402 C 238.542 164.304,241.001 164.127,241.188 164.010 C 241.732 163.669,242.418 163.635,242.774 163.930 C 242.954 164.080,245.980 164.200,249.498 164.198 C 257.315 164.193,264.938 164.503,266.198 164.876 C 266.714 165.029,268.259 165.372,269.633 165.637 C 271.007 165.903,273.115 166.345,274.317 166.620 C 276.650 167.152,282.250 167.284,282.561 166.814 C 282.664 166.659,283.731 166.499,284.934 166.460 C 286.136 166.422,287.253 166.259,287.416 166.099 C 287.579 165.939,288.317 165.808,289.055 165.808 C 289.963 165.808,290.373 165.681,290.320 165.418 C 290.275 165.194,290.629 164.983,291.148 164.924 C 291.647 164.867,292.255 164.620,292.501 164.375 C 292.746 164.129,293.076 164.009,293.234 164.106 C 293.392 164.204,293.521 164.165,293.521 164.019 C 293.521 163.874,293.827 163.732,294.202 163.704 C 294.577 163.675,295.008 163.432,295.158 163.162 C 295.309 162.893,295.566 162.754,295.728 162.855 C 295.891 162.955,296.243 162.818,296.512 162.549 C 296.780 162.281,297.186 162.061,297.413 162.061 C 297.640 162.061,297.905 161.852,298.003 161.598 C 298.101 161.343,298.372 161.208,298.605 161.297 C 298.838 161.387,299.556 160.963,300.200 160.355 C 300.844 159.748,301.480 159.251,301.613 159.251 C 301.746 159.251,302.109 158.970,302.420 158.626 C 302.731 158.283,303.114 158.002,303.271 158.002 C 303.660 158.002,304.282 157.343,304.543 156.655 C 304.661 156.343,304.902 156.178,305.080 156.288 C 305.257 156.397,305.363 156.306,305.316 156.085 C 305.269 155.863,305.546 155.539,305.933 155.363 C 306.319 155.187,306.635 154.938,306.635 154.809 C 306.635 154.329,307.695 153.356,308.018 153.540 C 308.202 153.645,308.253 153.620,308.131 153.484 C 307.859 153.183,308.720 151.444,309.142 151.444 C 309.309 151.444,309.446 151.155,309.446 150.801 C 309.446 150.448,309.586 150.245,309.758 150.351 C 309.930 150.457,310.070 150.270,310.070 149.935 C 310.070 149.599,310.265 149.251,310.502 149.160 C 310.739 149.068,311.067 148.456,311.230 147.799 C 311.393 147.142,311.661 146.630,311.826 146.661 C 311.991 146.692,312.148 146.432,312.174 146.083 C 312.200 145.734,312.461 145.274,312.753 145.061 C 313.111 144.799,313.233 144.402,313.126 143.843 C 313.020 143.289,313.102 143.013,313.373 143.013 C 313.648 143.013,313.849 142.303,313.995 140.827 C 314.113 139.625,314.356 138.642,314.534 138.642 C 314.712 138.642,314.766 138.549,314.653 138.436 C 314.540 138.323,314.601 138.046,314.788 137.820 C 315.502 136.960,315.176 123.356,314.452 123.803 C 314.310 123.891,314.095 122.839,313.973 121.466 C 313.852 120.093,313.626 118.970,313.473 118.970 C 313.319 118.970,313.193 118.706,313.193 118.383 C 313.193 118.061,312.982 117.622,312.724 117.408 C 312.467 117.194,312.256 116.773,312.256 116.472 C 312.256 116.170,312.062 115.763,311.825 115.566 C 311.588 115.369,311.311 114.790,311.209 114.279 C 311.096 113.717,310.827 113.349,310.528 113.349 C 310.256 113.349,310.113 113.220,310.211 113.062 C 310.308 112.904,310.211 112.587,309.995 112.358 C 309.002 111.305,308.640 110.719,309.133 110.962 C 309.391 111.088,309.286 110.958,308.899 110.671 C 308.513 110.385,308.197 109.957,308.197 109.720 C 308.197 109.483,307.986 109.290,307.728 109.290 C 307.471 109.290,307.295 109.163,307.338 109.009 C 307.446 108.621,304.155 104.918,303.704 104.918 C 303.503 104.918,303.136 104.637,302.888 104.294 C 302.641 103.950,302.258 103.669,302.039 103.669 C 301.819 103.669,301.639 103.470,301.639 103.227 C 301.639 102.983,301.464 102.722,301.249 102.645 C 301.034 102.568,300.942 102.415,301.044 102.304 C 301.146 102.192,301.589 102.419,302.029 102.807 C 304.075 104.614,304.933 105.228,305.376 105.206 C 305.795 105.184,305.796 105.159,305.386 105.002 C 305.129 104.904,304.632 104.528,304.282 104.168 C 303.317 103.173,300.810 101.480,300.339 101.505 C 300.110 101.517,300.203 101.648,300.546 101.795 C 301.131 102.047,301.124 102.065,300.432 102.086 C 299.842 102.103,299.726 101.981,299.856 101.483 C 299.946 101.139,299.891 100.937,299.734 101.035 C 299.255 101.331,298.175 100.848,298.416 100.446 C 298.561 100.204,298.469 100.214,298.145 100.476 C 297.741 100.803,297.621 100.793,297.478 100.418 C 297.382 100.168,297.442 99.916,297.611 99.860 C 297.781 99.803,297.457 99.587,296.891 99.380 C 295.963 99.041,295.922 99.049,296.469 99.463 C 296.802 99.715,296.925 99.922,296.741 99.922 C 296.116 99.922,295.634 98.993,295.773 98.051 C 295.949 96.848,295.897 96.868,295.169 98.283 M306.948 106.789 C 306.948 106.960,307.264 107.466,307.650 107.914 C 310.504 111.224,310.383 111.060,310.383 111.618 C 310.383 111.883,310.593 112.100,310.851 112.100 C 311.109 112.100,311.319 112.373,311.319 112.706 C 311.319 113.039,311.474 113.408,311.663 113.525 C 311.853 113.642,312.206 114.177,312.449 114.714 C 312.691 115.251,313.006 115.902,313.149 116.159 C 313.921 117.555,314.130 118.082,314.130 118.638 C 314.130 118.975,314.314 119.363,314.539 119.500 C 314.764 119.638,315.124 120.731,315.340 121.929 C 315.556 123.128,315.887 124.294,316.076 124.522 C 316.302 124.794,316.419 127.175,316.419 131.460 C 316.419 135.745,316.302 138.126,316.076 138.398 C 315.887 138.625,315.559 139.792,315.348 140.990 C 315.136 142.189,314.776 143.391,314.546 143.662 C 314.317 143.934,314.130 144.460,314.130 144.833 C 314.130 145.206,314.024 145.513,313.895 145.515 C 313.659 145.519,312.842 147.125,312.269 148.712 C 312.099 149.184,311.815 149.571,311.639 149.571 C 311.463 149.571,311.319 149.748,311.319 149.964 C 311.319 150.181,310.985 150.718,310.577 151.158 C 310.169 151.598,309.746 152.239,309.637 152.582 C 309.528 152.925,308.053 154.601,306.359 156.306 C 303.256 159.430,302.636 159.958,301.470 160.468 C 301.120 160.621,300.646 160.972,300.417 161.248 C 300.189 161.523,299.808 161.749,299.571 161.749 C 299.335 161.749,299.141 161.889,299.141 162.061 C 299.141 162.233,298.860 162.373,298.517 162.373 C 298.170 162.373,297.892 162.581,297.892 162.842 C 297.892 163.117,297.603 163.313,297.190 163.317 C 296.803 163.321,296.136 163.599,295.706 163.934 C 295.277 164.270,294.610 164.548,294.223 164.552 C 293.837 164.556,293.521 164.699,293.521 164.871 C 293.521 165.043,293.116 165.183,292.622 165.183 C 292.128 165.183,291.549 165.394,291.335 165.652 C 291.114 165.919,290.433 166.120,289.754 166.120 C 289.098 166.120,288.465 166.276,288.347 166.467 C 288.045 166.956,291.302 166.486,292.107 165.925 C 292.446 165.689,293.096 165.496,293.552 165.496 C 294.008 165.496,294.556 165.285,294.770 165.027 C 294.984 164.770,295.422 164.559,295.745 164.559 C 296.067 164.559,296.331 164.418,296.331 164.247 C 296.331 164.075,296.577 163.934,296.877 163.932 C 297.178 163.931,297.845 163.651,298.361 163.310 C 298.876 162.969,299.528 162.689,299.810 162.687 C 300.093 162.686,300.404 162.475,300.503 162.217 C 300.602 161.959,300.872 161.749,301.103 161.749 C 301.334 161.749,301.926 161.327,302.420 160.812 C 302.914 160.297,303.575 159.875,303.890 159.875 C 304.205 159.875,304.623 159.524,304.819 159.094 C 305.014 158.665,305.337 158.314,305.535 158.314 C 305.991 158.314,308.821 155.504,308.821 155.052 C 308.821 154.866,309.133 154.576,309.514 154.407 C 309.894 154.237,310.281 153.817,310.372 153.472 C 310.464 153.128,311.136 152.061,311.866 151.102 C 312.596 150.143,313.193 149.212,313.193 149.034 C 313.193 148.856,313.400 148.539,313.653 148.328 C 313.906 148.118,314.202 147.474,314.310 146.896 C 314.418 146.319,314.703 145.683,314.943 145.484 C 315.183 145.285,315.379 144.797,315.379 144.399 C 315.379 144.000,315.519 143.588,315.691 143.482 C 315.863 143.376,316.003 142.882,316.003 142.386 C 316.003 141.889,316.202 141.371,316.444 141.233 C 317.654 140.549,317.657 122.678,316.448 121.999 C 316.203 121.861,316.003 121.334,316.003 120.828 C 316.003 120.321,315.863 119.906,315.691 119.906 C 315.519 119.906,315.379 119.562,315.379 119.141 C 315.379 118.720,315.190 118.264,314.958 118.126 C 314.727 117.989,314.449 117.414,314.339 116.847 C 314.229 116.281,313.786 115.355,313.354 114.788 C 312.922 114.222,312.568 113.526,312.568 113.241 C 312.568 112.957,312.373 112.724,312.134 112.724 C 311.895 112.724,311.615 112.408,311.513 112.022 C 311.410 111.635,310.938 110.883,310.464 110.350 C 308.479 108.120,307.572 106.988,307.572 106.741 C 307.572 106.597,307.432 106.479,307.260 106.479 C 307.088 106.479,306.948 106.619,306.948 106.789 M157.449 107.889 C 157.232 108.136,156.248 108.570,155.264 108.852 C 154.279 109.134,153.333 109.474,153.162 109.607 C 152.990 109.741,152.217 110.029,151.444 110.249 C 150.671 110.468,149.899 110.746,149.727 110.865 C 149.555 110.984,148.853 111.263,148.168 111.484 C 147.482 111.705,146.387 112.125,145.735 112.417 L 144.549 112.948 146.589 115.412 C 147.711 116.768,148.916 118.228,149.268 118.657 C 149.860 119.379,152.400 122.671,153.485 124.122 C 158.338 130.612,161.834 133.946,165.896 135.958 C 167.926 136.964,168.269 136.894,167.577 135.619 C 166.889 134.351,165.496 131.227,165.496 130.953 C 165.496 130.825,165.227 130.149,164.899 129.451 C 164.571 128.752,163.858 127.127,163.314 125.839 C 162.770 124.551,162.136 123.076,161.904 122.560 C 161.673 122.045,161.312 120.921,161.102 120.062 C 160.893 119.204,160.615 118.361,160.484 118.189 C 160.353 118.017,160.072 116.963,159.860 115.847 C 159.647 114.731,159.372 113.677,159.249 113.505 C 159.126 113.333,158.778 111.893,158.475 110.304 C 158.172 108.716,157.906 107.421,157.885 107.428 C 157.863 107.434,157.667 107.642,157.449 107.889 M129.347 120.800 C 128.615 121.253,126.437 122.689,124.507 123.992 C 122.578 125.294,119.805 127.118,118.345 128.046 C 101.803 138.560,82.332 156.146,69.448 172.209 C 67.933 174.098,65.703 176.782,64.494 178.172 C 63.285 179.563,61.034 182.373,59.494 184.417 C 57.953 186.462,55.911 189.050,54.957 190.170 C 54.002 191.290,52.316 193.395,51.211 194.847 C 50.105 196.299,44.783 201.917,39.384 207.331 C 28.667 218.078,28.728 218.015,28.728 218.494 C 28.728 218.676,28.508 218.909,28.239 219.012 C 27.971 219.115,27.830 219.326,27.925 219.481 C 28.021 219.636,27.881 219.847,27.613 219.949 C 27.346 220.052,27.205 220.263,27.301 220.418 C 27.397 220.573,27.245 220.788,26.964 220.896 C 26.682 221.004,26.541 221.180,26.648 221.288 C 26.756 221.396,26.601 221.684,26.303 221.928 C 26.005 222.173,25.962 222.268,26.208 222.140 C 26.454 222.012,26.262 222.423,25.781 223.054 C 25.300 223.684,25.028 224.202,25.178 224.205 C 25.327 224.207,25.239 224.342,24.982 224.504 C 24.697 224.685,24.554 225.156,24.612 225.717 C 24.677 226.336,24.518 226.772,24.123 227.056 C 23.454 227.538,22.787 228.494,23.371 228.133 C 23.581 228.003,23.731 228.102,23.731 228.371 C 23.731 229.106,23.377 229.831,23.101 229.661 C 22.962 229.575,22.911 230.056,22.989 230.730 C 23.102 231.718,23.002 232.044,22.472 232.416 C 22.041 232.717,21.948 232.921,22.202 233.006 C 22.510 233.108,22.511 233.800,22.204 236.396 C 21.809 239.732,22.170 244.447,23.110 248.244 C 23.301 249.016,23.535 250.031,23.629 250.497 C 23.722 250.964,23.995 251.508,24.234 251.707 C 24.473 251.905,24.668 252.317,24.668 252.622 C 24.668 252.927,25.090 253.978,25.605 254.957 C 26.120 255.937,26.542 256.934,26.542 257.175 C 26.542 257.415,26.687 257.611,26.864 257.611 C 27.041 257.611,27.275 257.857,27.384 258.158 C 27.690 259.002,29.396 261.378,30.523 262.528 C 31.081 263.099,31.538 263.653,31.538 263.761 C 31.538 263.957,32.473 264.838,34.817 266.852 C 36.738 268.502,39.659 270.490,41.380 271.319 C 42.235 271.731,43.179 272.187,43.477 272.334 C 43.776 272.480,44.215 272.600,44.454 272.600 C 44.693 272.600,45.051 272.795,45.249 273.034 C 45.447 273.273,46.272 273.566,47.083 273.685 C 47.893 273.805,48.977 274.088,49.493 274.314 C 50.008 274.541,51.343 274.840,52.459 274.980 C 55.747 275.391,66.885 275.150,67.353 274.658 C 67.491 274.514,67.287 274.493,66.901 274.611 C 66.490 274.738,66.198 274.695,66.198 274.508 C 66.198 274.204,67.101 273.958,69.165 273.697 C 69.680 273.632,70.172 273.553,70.258 273.521 C 70.343 273.489,70.519 273.479,70.648 273.499 C 70.777 273.520,70.847 273.361,70.804 273.146 C 70.761 272.931,71.007 272.750,71.351 272.744 C 71.695 272.738,72.186 272.601,72.444 272.441 C 72.701 272.280,73.108 272.119,73.349 272.083 C 73.589 272.046,73.900 271.832,74.040 271.605 C 74.180 271.379,74.405 271.187,74.540 271.179 C 75.232 271.136,76.153 270.649,76.308 270.246 C 76.404 269.995,76.628 269.789,76.804 269.789 C 77.173 269.789,80.036 267.779,81.013 266.833 C 81.374 266.484,82.298 265.657,83.067 264.995 C 83.836 264.333,86.213 262.155,88.350 260.155 C 99.004 250.181,102.680 246.328,108.087 239.471 C 109.521 237.652,111.863 234.701,113.291 232.914 C 114.719 231.127,117.066 228.189,118.506 226.386 C 119.947 224.582,122.323 221.632,123.788 219.828 C 125.253 218.025,126.454 216.390,126.457 216.195 C 126.461 216.000,126.784 215.631,127.176 215.374 C 127.567 215.118,128.301 214.294,128.806 213.543 C 129.310 212.792,130.817 211.076,132.155 209.729 C 133.492 208.382,135.008 206.695,135.523 205.982 C 136.039 205.268,137.189 204.052,138.080 203.279 C 138.970 202.506,140.005 201.582,140.379 201.226 C 140.753 200.869,141.571 200.276,142.197 199.906 C 143.381 199.208,143.535 199.092,144.981 197.809 C 145.462 197.383,145.989 197.034,146.152 197.034 C 146.315 197.034,146.448 196.826,146.448 196.572 C 146.448 196.317,147.010 195.823,147.697 195.472 C 148.384 195.122,148.946 194.632,148.946 194.383 C 148.946 194.115,149.132 194.002,149.401 194.105 C 149.654 194.202,150.214 193.921,150.664 193.471 C 151.109 193.026,151.585 192.662,151.723 192.662 C 151.943 192.662,152.421 192.313,153.851 191.106 C 154.058 190.932,154.317 190.788,154.426 190.788 C 154.535 190.788,155.419 190.246,156.391 189.583 C 157.363 188.921,159.633 187.426,161.436 186.261 C 163.240 185.097,164.996 183.894,165.340 183.587 C 165.683 183.281,167.299 182.369,168.931 181.562 C 170.562 180.754,171.941 179.979,171.995 179.838 C 172.049 179.697,172.285 179.656,172.518 179.745 C 172.753 179.836,173.170 179.563,173.449 179.137 C 173.727 178.712,174.335 178.289,174.799 178.196 C 177.922 177.570,178.790 177.287,179.315 176.723 C 179.686 176.324,180.126 176.155,180.488 176.270 C 180.806 176.371,182.165 176.037,183.508 175.528 C 184.850 175.018,186.214 174.517,186.537 174.414 C 187.083 174.240,187.089 174.184,186.621 173.667 C 186.076 173.066,185.189 171.516,183.550 168.306 C 182.980 167.190,182.408 166.230,182.279 166.172 C 182.151 166.115,182.045 165.954,182.045 165.814 C 182.045 165.674,181.506 164.667,180.848 163.576 C 180.189 162.485,178.906 160.047,177.997 158.158 C 177.087 156.269,175.394 152.756,174.233 150.351 C 173.073 147.947,172.018 145.628,171.890 145.199 C 171.762 144.770,171.570 144.348,171.465 144.262 C 171.359 144.176,171.054 143.685,170.787 143.169 C 170.388 142.400,170.137 142.251,169.382 142.334 C 166.595 142.642,159.267 142.709,158.314 142.436 C 157.713 142.263,156.378 141.960,155.347 141.761 C 153.643 141.434,150.579 140.139,150.195 139.585 C 150.109 139.461,149.865 139.304,149.653 139.235 C 148.254 138.783,141.413 132.873,138.384 129.499 C 135.700 126.510,132.082 122.079,130.991 120.444 C 130.723 120.041,130.493 120.091,129.347 120.800 M284.294 167.040 C 284.130 167.202,283.154 167.386,282.123 167.449 L 280.250 167.563 282.475 167.622 C 284.128 167.666,284.801 167.561,285.090 167.213 C 285.542 166.669,284.824 166.512,284.294 167.040 M21.006 240.125 C 21.006 240.898,21.067 241.214,21.142 240.827 C 21.216 240.441,21.216 239.809,21.142 239.422 C 21.067 239.036,21.006 239.352,21.006 240.125 M42.623 273.224 C 42.729 273.396,43.124 273.526,43.500 273.514 C 44.160 273.493,44.162 273.483,43.560 273.224 C 42.700 272.855,42.395 272.855,42.623 273.224 " stroke="none" fill="#a69e4a" fill-rule="evenodd"></path><path id="path2" d="M245.556 41.712 C 245.660 41.983,245.746 42.343,245.746 42.511 C 245.746 42.948,246.310 42.539,246.692 41.825 C 246.975 41.295,246.912 41.218,246.191 41.218 C 245.567 41.218,245.413 41.338,245.556 41.712 M239.500 42.155 C 239.500 42.326,239.325 42.470,239.110 42.473 C 238.620 42.481,235.129 45.995,235.129 46.480 C 235.129 46.677,234.988 46.838,234.817 46.838 C 234.645 46.838,234.504 47.260,234.504 47.775 C 234.504 48.290,234.645 48.712,234.817 48.712 C 234.988 48.712,235.129 48.973,235.129 49.293 C 235.129 51.774,238.847 55.075,241.594 55.034 C 242.755 55.016,243.848 55.116,244.023 55.256 C 244.198 55.395,244.818 55.612,245.402 55.737 C 245.986 55.862,246.994 56.475,247.643 57.100 C 250.528 59.879,254.314 62.267,254.768 61.593 C 254.872 61.439,255.206 61.221,255.511 61.108 C 255.815 60.996,256.158 60.655,256.274 60.351 C 256.389 60.046,256.667 59.611,256.891 59.384 C 257.115 59.157,257.299 58.570,257.299 58.080 C 257.299 57.589,257.523 56.963,257.798 56.689 C 258.072 56.414,258.217 55.983,258.120 55.730 C 258.023 55.476,258.079 55.269,258.246 55.269 C 258.412 55.269,258.548 54.567,258.548 53.708 C 258.548 52.849,258.412 52.147,258.246 52.147 C 258.079 52.147,258.023 51.939,258.120 51.685 C 258.363 51.053,257.051 48.401,256.070 47.541 C 255.630 47.155,255.374 46.839,255.501 46.839 C 255.629 46.839,255.428 46.487,255.055 46.058 C 254.346 45.242,253.289 45.040,252.718 45.611 C 252.534 45.795,251.417 46.058,250.236 46.195 C 249.054 46.332,248.347 46.463,248.664 46.485 C 249.840 46.569,251.045 47.764,251.251 49.052 C 251.359 49.731,251.570 50.363,251.719 50.455 C 252.177 50.737,252.020 53.373,251.499 54.169 C 250.889 55.098,250.243 54.897,249.649 53.592 C 249.404 53.055,248.777 51.842,248.255 50.898 C 247.734 49.953,247.307 48.840,247.307 48.423 L 247.307 47.666 246.604 48.301 C 244.878 49.859,240.257 50.971,240.488 49.772 C 240.671 48.822,244.111 46.887,245.746 46.815 C 246.518 46.781,246.852 46.695,246.487 46.623 C 246.122 46.551,245.500 46.149,245.105 45.729 C 244.711 45.309,244.248 44.965,244.078 44.965 C 243.908 44.965,243.546 44.764,243.274 44.519 C 243.002 44.273,242.231 43.571,241.560 42.957 C 240.369 41.868,239.500 41.529,239.500 42.155 M164.723 86.794 C 164.622 86.958,164.333 87.013,164.081 86.916 C 163.828 86.820,163.622 86.896,163.622 87.086 C 163.622 87.276,163.211 87.432,162.708 87.432 C 162.205 87.432,161.582 87.642,161.325 87.900 C 161.067 88.158,160.706 88.368,160.522 88.368 C 159.724 88.368,160.287 89.379,161.328 89.814 C 161.955 90.076,162.713 90.592,163.011 90.961 L 163.555 91.632 164.030 90.494 C 164.616 89.092,165.125 88.812,167.604 88.530 C 168.678 88.407,169.634 88.180,169.730 88.025 C 169.956 87.659,172.053 87.658,172.053 88.024 C 172.053 88.506,170.026 90.110,168.454 90.870 C 166.957 91.595,166.952 91.603,167.641 92.092 C 169.530 93.433,171.741 95.304,171.741 95.562 C 171.741 96.038,170.181 96.280,169.453 95.916 C 169.080 95.729,168.183 95.426,167.461 95.243 C 166.729 95.057,165.637 94.429,164.997 93.824 C 163.556 92.466,163.622 92.442,163.622 94.314 C 163.622 95.874,162.199 99.607,161.420 100.088 C 160.910 100.403,159.935 99.355,159.711 98.250 C 159.601 97.710,159.360 96.826,159.174 96.285 C 158.904 95.501,158.941 95.083,159.356 94.209 C 160.050 92.745,160.113 92.831,158.080 92.428 C 157.092 92.233,156.038 92.003,155.738 91.917 C 155.353 91.807,155.094 92.019,154.860 92.635 C 154.677 93.115,154.371 93.605,154.179 93.723 C 153.710 94.013,153.499 97.736,153.952 97.736 C 154.138 97.736,154.200 97.884,154.088 98.064 C 153.977 98.245,154.258 98.737,154.712 99.159 C 155.167 99.580,155.452 100.065,155.347 100.236 C 155.241 100.407,155.303 100.546,155.485 100.546 C 155.667 100.546,155.816 100.728,155.816 100.951 C 155.816 102.586,160.222 104.175,161.600 103.037 C 161.776 102.891,162.619 102.543,163.474 102.263 C 164.328 101.983,165.449 101.569,165.964 101.344 C 166.479 101.119,168.447 100.841,170.336 100.726 C 174.132 100.495,175.514 99.751,175.966 97.692 C 176.073 97.205,176.290 96.726,176.449 96.628 C 176.607 96.530,176.737 96.188,176.737 95.866 C 176.737 95.545,176.957 95.063,177.225 94.794 C 177.494 94.526,177.626 94.165,177.519 93.991 C 177.412 93.818,177.473 93.677,177.655 93.677 C 177.857 93.677,177.986 92.821,177.986 91.491 C 177.986 89.805,177.884 89.305,177.540 89.305 C 177.295 89.305,176.883 89.095,176.626 88.837 C 176.368 88.580,175.831 88.334,175.432 88.291 C 175.034 88.248,174.629 88.108,174.534 87.980 C 174.438 87.852,173.490 87.656,172.426 87.545 C 171.362 87.434,170.492 87.206,170.492 87.039 C 170.492 86.871,170.141 86.802,169.711 86.884 C 169.282 86.966,168.931 86.912,168.931 86.764 C 168.931 86.394,164.953 86.422,164.723 86.794 " stroke="none" fill="#f3c3eb" fill-rule="evenodd"></path><path id="path3" d="M296.019 69.320 C 296.019 69.480,296.297 69.760,296.636 69.942 C 297.132 70.207,297.219 70.183,297.080 69.821 C 296.879 69.295,296.019 68.889,296.019 69.320 M243.716 91.456 C 244.939 92.312,258.255 92.483,259.347 91.657 C 259.885 91.250,259.054 91.198,251.938 91.189 C 247.530 91.183,243.666 91.094,243.351 90.990 C 243.036 90.886,243.201 91.096,243.716 91.456 M206.401 93.875 C 201.792 94.871,200.267 95.170,197.112 95.695 C 195.695 95.931,193.869 96.328,193.053 96.577 C 190.753 97.278,186.770 98.279,184.663 98.685 C 182.255 99.149,181.799 99.405,182.301 100.010 C 182.666 100.449,186.137 99.813,189.800 98.636 C 191.036 98.238,195.346 97.301,199.688 96.484 C 209.490 94.641,211.085 94.224,211.085 93.502 C 211.085 92.918,210.686 92.949,206.401 93.875 M295.931 97.303 C 295.292 97.942,295.922 99.922,296.765 99.922 C 296.936 99.922,296.802 99.715,296.469 99.463 C 295.922 99.049,295.963 99.041,296.891 99.380 C 297.457 99.587,297.781 99.803,297.611 99.860 C 297.442 99.916,297.382 100.168,297.478 100.418 C 297.621 100.793,297.741 100.803,298.145 100.476 C 298.469 100.214,298.561 100.204,298.416 100.446 C 298.175 100.848,299.255 101.331,299.734 101.035 C 299.891 100.937,299.946 101.139,299.856 101.483 C 299.726 101.981,299.842 102.103,300.432 102.086 C 301.124 102.065,301.131 102.047,300.546 101.795 C 300.203 101.648,300.110 101.517,300.339 101.505 C 300.810 101.480,303.317 103.173,304.282 104.168 C 304.632 104.528,305.129 104.904,305.386 105.002 C 305.796 105.159,305.795 105.184,305.376 105.206 C 304.933 105.228,304.075 104.614,302.029 102.807 C 301.589 102.419,301.146 102.192,301.044 102.304 C 300.942 102.415,301.034 102.568,301.249 102.645 C 301.464 102.722,301.639 102.983,301.639 103.227 C 301.639 103.470,301.819 103.669,302.039 103.669 C 302.258 103.669,302.641 103.950,302.888 104.294 C 303.136 104.637,303.503 104.918,303.704 104.918 C 304.155 104.918,307.446 108.621,307.338 109.009 C 307.295 109.163,307.471 109.290,307.728 109.290 C 307.986 109.290,308.197 109.483,308.197 109.720 C 308.197 109.957,308.513 110.385,308.899 110.671 C 309.286 110.958,309.391 111.088,309.133 110.962 C 308.640 110.719,309.002 111.305,309.995 112.358 C 310.211 112.587,310.308 112.904,310.211 113.062 C 310.113 113.220,310.256 113.349,310.528 113.349 C 310.827 113.349,311.096 113.717,311.209 114.279 C 311.311 114.790,311.588 115.369,311.825 115.566 C 312.062 115.763,312.256 116.170,312.256 116.472 C 312.256 116.773,312.467 117.194,312.724 117.408 C 312.982 117.622,313.193 118.061,313.193 118.383 C 313.193 118.706,313.319 118.970,313.473 118.970 C 313.626 118.970,313.852 120.093,313.973 121.466 C 314.095 122.839,314.310 123.891,314.452 123.803 C 315.176 123.356,315.502 136.960,314.788 137.820 C 314.601 138.046,314.540 138.323,314.653 138.436 C 314.766 138.549,314.712 138.642,314.534 138.642 C 314.356 138.642,314.113 139.625,313.995 140.827 C 313.849 142.303,313.648 143.013,313.373 143.013 C 313.102 143.013,313.020 143.289,313.126 143.843 C 313.233 144.402,313.111 144.799,312.753 145.061 C 312.461 145.274,312.200 145.734,312.174 146.083 C 312.148 146.432,311.991 146.692,311.826 146.661 C 311.661 146.630,311.393 147.142,311.230 147.799 C 311.067 148.456,310.739 149.068,310.502 149.160 C 310.265 149.251,310.070 149.599,310.070 149.935 C 310.070 150.270,309.930 150.457,309.758 150.351 C 309.586 150.245,309.446 150.448,309.446 150.801 C 309.446 151.155,309.309 151.444,309.142 151.444 C 308.720 151.444,307.859 153.183,308.131 153.484 C 308.253 153.620,308.202 153.645,308.018 153.540 C 307.695 153.356,306.635 154.329,306.635 154.809 C 306.635 154.938,306.319 155.187,305.933 155.363 C 305.546 155.539,305.269 155.863,305.316 156.085 C 305.363 156.306,305.257 156.397,305.080 156.288 C 304.902 156.178,304.661 156.343,304.543 156.655 C 304.282 157.343,303.660 158.002,303.271 158.002 C 303.114 158.002,302.731 158.283,302.420 158.626 C 302.109 158.970,301.746 159.251,301.613 159.251 C 301.480 159.251,300.844 159.748,300.200 160.355 C 299.556 160.963,298.838 161.387,298.605 161.297 C 298.372 161.208,298.101 161.343,298.003 161.598 C 297.905 161.852,297.640 162.061,297.413 162.061 C 297.186 162.061,296.780 162.281,296.512 162.549 C 296.243 162.818,295.891 162.955,295.728 162.855 C 295.566 162.754,295.309 162.893,295.158 163.162 C 295.008 163.432,294.577 163.675,294.202 163.704 C 293.827 163.732,293.521 163.874,293.521 164.019 C 293.521 164.165,293.392 164.204,293.234 164.106 C 293.076 164.009,292.746 164.129,292.501 164.375 C 292.255 164.620,291.647 164.867,291.148 164.924 C 290.629 164.983,290.275 165.194,290.320 165.418 C 290.373 165.681,289.963 165.808,289.055 165.808 C 288.317 165.808,287.579 165.939,287.416 166.099 C 287.253 166.259,286.136 166.422,284.934 166.460 C 283.731 166.499,282.664 166.659,282.561 166.814 C 282.250 167.284,276.650 167.152,274.317 166.620 C 273.115 166.345,271.007 165.903,269.633 165.637 C 268.259 165.372,266.714 165.029,266.198 164.876 C 264.938 164.503,257.315 164.193,249.498 164.198 C 245.980 164.200,242.954 164.080,242.774 163.930 C 242.418 163.635,241.732 163.669,241.188 164.010 C 241.001 164.127,238.542 164.304,235.724 164.402 C 232.906 164.500,229.336 164.718,227.791 164.886 C 226.245 165.053,224.208 165.251,223.263 165.325 C 222.319 165.398,220.492 165.737,219.204 166.078 C 217.916 166.419,216.187 166.788,215.362 166.899 C 214.182 167.057,213.789 167.262,213.516 167.859 C 213.326 168.277,213.029 168.618,212.856 168.618 C 212.684 168.618,212.607 168.683,212.687 168.763 C 212.766 168.842,213.598 168.692,214.534 168.429 C 217.568 167.577,221.215 167.001,221.333 167.356 C 221.393 167.535,221.706 167.681,222.030 167.681 C 222.418 167.681,222.559 167.526,222.444 167.226 C 222.326 166.919,222.533 166.716,223.079 166.602 C 223.524 166.509,224.228 166.362,224.644 166.277 C 226.583 165.877,240.825 165.482,241.228 165.817 C 241.528 166.065,241.823 166.069,242.270 165.830 C 243.022 165.427,255.485 165.403,261.671 165.791 C 266.120 166.070,271.280 167.182,275.566 168.784 C 276.768 169.233,278.103 169.717,278.532 169.859 C 279.745 170.260,282.886 171.620,286.651 173.373 C 295.208 177.357,295.790 177.735,300.873 182.613 C 302.426 184.104,304.482 185.956,305.442 186.729 C 306.401 187.502,307.417 188.556,307.699 189.071 C 307.981 189.586,308.670 190.500,309.231 191.101 C 309.791 191.702,310.940 193.247,311.784 194.536 C 312.628 195.824,313.687 197.369,314.137 197.970 C 314.588 198.571,315.569 199.906,316.317 200.937 C 318.403 203.808,323.386 208.634,325.995 210.311 C 328.603 211.987,331.522 213.583,331.977 213.583 C 332.141 213.583,332.864 213.851,333.585 214.178 C 343.227 218.558,359.607 217.004,367.681 210.944 C 368.197 210.557,369.040 210.018,369.555 209.745 C 370.070 209.473,371.642 208.127,373.048 206.754 C 375.155 204.697,375.668 204.336,375.969 204.699 C 376.170 204.941,376.706 205.335,377.160 205.573 C 377.614 205.812,378.769 206.435,379.726 206.959 C 384.001 209.295,385.793 209.677,392.506 209.678 C 396.903 209.679,398.791 209.568,399.299 209.278 L 400.003 208.875 399.924 182.111 L 399.844 155.347 396.409 155.254 C 393.033 155.163,387.986 155.631,387.360 156.094 C 387.185 156.223,385.636 156.874,383.919 157.540 C 382.201 158.206,380.351 159.011,379.808 159.328 L 378.819 159.906 378.246 159.075 C 377.931 158.618,376.471 156.890,375.002 155.235 C 373.532 153.579,371.805 151.452,371.164 150.507 C 369.229 147.657,368.091 146.107,365.890 143.326 C 364.735 141.866,363.542 140.325,363.238 139.903 C 362.291 138.586,353.989 130.211,353.629 130.211 C 353.442 130.211,352.944 129.795,352.522 129.287 C 352.101 128.779,351.581 128.358,351.366 128.350 C 351.151 128.343,350.976 128.207,350.976 128.047 C 350.976 127.657,351.339 127.997,343.935 121.468 C 341.442 119.269,340.914 118.854,339.578 118.044 C 338.891 117.627,338.217 117.103,338.080 116.879 C 337.942 116.655,337.691 116.472,337.520 116.472 C 337.350 116.472,337.040 116.331,336.833 116.159 C 334.449 114.187,316.478 104.606,315.162 104.606 C 315.055 104.606,313.901 104.099,312.597 103.479 C 311.293 102.860,309.805 102.174,309.290 101.955 C 305.880 100.507,304.511 99.961,303.825 99.778 C 303.396 99.664,302.763 99.446,302.420 99.294 C 299.187 97.864,296.266 96.968,295.931 97.303 M157.420 106.714 C 157.396 106.928,157.104 107.104,156.771 107.104 C 156.438 107.104,156.088 107.228,155.995 107.379 C 155.901 107.530,155.507 107.725,155.118 107.813 C 154.729 107.900,153.005 108.492,151.288 109.129 C 149.571 109.766,147.507 110.530,146.702 110.826 C 144.908 111.488,144.126 112.089,144.532 112.495 C 144.790 112.753,146.976 112.063,149.727 110.856 C 150.070 110.705,150.913 110.414,151.600 110.207 C 152.287 110.001,152.990 109.728,153.162 109.599 C 153.333 109.470,154.247 109.139,155.191 108.862 C 157.451 108.200,157.772 107.961,157.603 107.069 C 157.526 106.659,157.443 106.499,157.420 106.714 M307.572 106.741 C 307.572 106.988,308.479 108.120,310.464 110.350 C 310.938 110.883,311.410 111.635,311.513 112.022 C 311.615 112.408,311.895 112.724,312.134 112.724 C 312.373 112.724,312.568 112.957,312.568 113.241 C 312.568 113.526,312.922 114.222,313.354 114.788 C 313.786 115.355,314.229 116.281,314.339 116.847 C 314.449 117.414,314.727 117.989,314.958 118.126 C 315.190 118.264,315.379 118.720,315.379 119.141 C 315.379 119.562,315.519 119.906,315.691 119.906 C 315.863 119.906,316.003 120.321,316.003 120.828 C 316.003 121.334,316.203 121.861,316.448 121.999 C 317.657 122.678,317.654 140.549,316.444 141.233 C 316.202 141.371,316.003 141.889,316.003 142.386 C 316.003 142.882,315.863 143.376,315.691 143.482 C 315.519 143.588,315.379 144.000,315.379 144.399 C 315.379 144.797,315.183 145.285,314.943 145.484 C 314.703 145.683,314.418 146.319,314.310 146.896 C 314.202 147.474,313.906 148.118,313.653 148.328 C 313.400 148.539,313.193 148.856,313.193 149.034 C 313.193 149.212,312.596 150.143,311.866 151.102 C 311.136 152.061,310.464 153.128,310.372 153.472 C 310.281 153.817,309.894 154.237,309.514 154.407 C 309.133 154.576,308.821 154.866,308.821 155.052 C 308.821 155.504,305.991 158.314,305.535 158.314 C 305.337 158.314,305.014 158.665,304.819 159.094 C 304.623 159.524,304.205 159.875,303.890 159.875 C 303.575 159.875,302.914 160.297,302.420 160.812 C 301.926 161.327,301.334 161.749,301.103 161.749 C 300.872 161.749,300.602 161.959,300.503 162.217 C 300.404 162.475,300.093 162.686,299.810 162.687 C 299.528 162.689,298.876 162.969,298.361 163.310 C 297.845 163.651,297.178 163.931,296.877 163.932 C 296.577 163.934,296.331 164.075,296.331 164.247 C 296.331 164.418,296.067 164.559,295.745 164.559 C 295.422 164.559,294.984 164.770,294.770 165.027 C 294.556 165.285,294.008 165.496,293.552 165.496 C 293.096 165.496,292.446 165.689,292.107 165.925 C 291.302 166.486,288.045 166.956,288.347 166.467 C 288.465 166.276,289.098 166.120,289.754 166.120 C 290.433 166.120,291.114 165.919,291.335 165.652 C 291.549 165.394,292.128 165.183,292.622 165.183 C 293.116 165.183,293.521 165.043,293.521 164.871 C 293.521 164.699,293.837 164.556,294.223 164.552 C 294.610 164.548,295.277 164.270,295.706 163.934 C 296.136 163.599,296.803 163.321,297.190 163.317 C 297.603 163.313,297.892 163.117,297.892 162.842 C 297.892 162.581,298.170 162.373,298.517 162.373 C 298.860 162.373,299.141 162.233,299.141 162.061 C 299.141 161.889,299.335 161.749,299.571 161.749 C 299.808 161.749,300.189 161.523,300.417 161.248 C 300.646 160.972,301.120 160.621,301.470 160.468 C 302.636 159.958,303.256 159.430,306.359 156.306 C 308.053 154.601,309.528 152.925,309.637 152.582 C 309.746 152.239,310.169 151.598,310.577 151.158 C 310.985 150.718,311.319 150.181,311.319 149.964 C 311.319 149.748,311.463 149.571,311.639 149.571 C 311.815 149.571,312.099 149.184,312.269 148.712 C 312.842 147.125,313.659 145.519,313.895 145.515 C 314.024 145.513,314.130 145.206,314.130 144.833 C 314.130 144.460,314.317 143.934,314.546 143.662 C 314.776 143.391,315.136 142.189,315.348 140.990 C 315.559 139.792,315.887 138.625,316.076 138.398 C 316.302 138.126,316.419 135.745,316.419 131.460 C 316.419 127.175,316.302 124.794,316.076 124.522 C 315.887 124.294,315.556 123.128,315.340 121.929 C 315.124 120.731,314.764 119.638,314.539 119.500 C 314.314 119.363,314.130 118.975,314.130 118.638 C 314.130 118.082,313.921 117.555,313.149 116.159 C 313.006 115.902,312.691 115.251,312.449 114.714 C 312.206 114.177,311.853 113.642,311.663 113.525 C 311.474 113.408,311.319 113.039,311.319 112.706 C 311.319 112.373,311.109 112.100,310.851 112.100 C 310.593 112.100,310.383 111.883,310.383 111.618 C 310.383 111.060,310.504 111.224,307.650 107.914 C 306.902 107.047,306.748 106.479,307.260 106.479 C 307.432 106.479,307.572 106.597,307.572 106.741 M128.181 120.245 C 127.494 120.746,126.463 121.389,125.889 121.673 C 125.315 121.958,124.773 122.379,124.684 122.610 C 124.596 122.840,124.349 123.029,124.137 123.029 C 123.924 123.029,123.496 123.310,123.185 123.653 C 122.874 123.997,122.431 124.278,122.200 124.278 C 121.969 124.278,121.780 124.418,121.780 124.590 C 121.780 124.762,121.638 124.902,121.464 124.902 C 121.291 124.902,120.449 125.394,119.594 125.995 C 118.739 126.596,117.964 127.088,117.872 127.088 C 117.378 127.088,110.851 131.798,110.851 132.155 C 110.851 132.288,110.703 132.397,110.522 132.397 C 110.097 132.397,106.956 134.537,105.543 135.790 C 104.941 136.322,104.344 136.760,104.215 136.763 C 104.087 136.766,103.719 137.014,103.399 137.315 C 103.078 137.615,101.919 138.563,100.822 139.421 C 99.726 140.278,98.677 141.121,98.490 141.294 C 98.304 141.467,97.757 141.889,97.274 142.233 C 94.381 144.293,84.728 153.561,78.715 160.054 C 77.613 161.244,75.716 163.272,74.499 164.562 C 73.283 165.852,71.795 167.519,71.194 168.267 C 69.504 170.370,68.919 171.080,66.619 173.818 C 62.572 178.635,61.951 179.395,61.033 180.640 C 60.527 181.327,59.937 182.002,59.721 182.139 C 59.505 182.276,59.329 182.581,59.329 182.815 C 59.329 183.050,59.219 183.289,59.084 183.346 C 58.949 183.404,58.190 184.294,57.397 185.324 C 56.604 186.354,55.696 187.479,55.378 187.822 C 55.061 188.166,54.176 189.290,53.413 190.320 C 52.649 191.351,51.862 192.334,51.663 192.506 C 51.464 192.678,51.100 193.122,50.855 193.494 C 49.880 194.969,46.811 198.293,43.269 201.712 C 41.219 203.690,37.636 207.162,35.306 209.428 C 32.976 211.693,30.437 214.002,29.664 214.559 C 28.891 215.116,28.073 215.756,27.847 215.982 C 27.620 216.208,27.311 216.393,27.160 216.393 C 26.848 216.393,20.921 222.111,20.921 222.413 C 20.921 222.521,20.207 223.565,19.335 224.732 C 18.462 225.899,17.320 227.767,16.797 228.884 C 16.274 230.000,15.723 231.157,15.573 231.456 C 15.423 231.754,15.301 232.220,15.301 232.493 C 15.301 232.765,15.090 233.198,14.832 233.456 C 14.575 233.714,14.364 234.308,14.364 234.776 C 14.364 235.245,14.238 235.762,14.084 235.925 C 13.929 236.088,13.730 236.784,13.641 237.471 C 13.551 238.158,13.332 239.352,13.154 240.125 C 12.742 241.910,12.732 249.515,13.138 251.366 C 13.308 252.139,13.532 253.372,13.635 254.106 C 13.738 254.839,13.944 255.515,14.093 255.607 C 14.242 255.699,14.364 256.131,14.364 256.567 C 14.364 257.002,14.557 257.732,14.794 258.188 C 15.031 258.643,15.398 259.438,15.611 259.953 C 15.824 260.468,16.122 261.134,16.274 261.432 C 16.425 261.730,16.550 262.187,16.550 262.447 C 16.550 262.707,16.675 262.920,16.828 262.920 C 16.981 262.920,17.195 263.271,17.302 263.700 C 17.410 264.130,17.636 264.481,17.805 264.481 C 17.973 264.481,18.111 264.629,18.111 264.810 C 18.111 266.105,25.482 274.428,27.673 275.608 C 28.253 275.921,28.728 276.285,28.728 276.418 C 28.728 276.550,28.938 276.659,29.196 276.659 C 29.454 276.659,29.664 276.779,29.664 276.926 C 29.664 277.073,30.850 277.776,32.300 278.488 C 33.750 279.199,35.023 279.922,35.129 280.094 C 35.235 280.265,35.656 280.406,36.066 280.406 C 36.475 280.406,36.881 280.522,36.969 280.665 C 37.057 280.807,37.944 281.097,38.939 281.308 C 39.935 281.520,41.235 281.844,41.828 282.029 C 45.773 283.261,56.629 283.230,57.876 281.984 C 58.057 281.803,58.633 281.653,59.157 281.650 C 60.119 281.646,62.259 281.015,62.654 280.620 C 62.771 280.502,63.128 280.406,63.446 280.406 C 63.764 280.406,64.581 280.055,65.262 279.625 C 65.942 279.196,66.651 278.845,66.839 278.845 C 67.026 278.845,68.539 277.952,70.202 276.860 C 71.864 275.769,73.529 274.716,73.902 274.520 C 74.275 274.325,74.770 273.988,75.003 273.773 C 75.235 273.557,76.124 272.804,76.979 272.100 C 79.757 269.810,80.290 269.349,82.539 267.291 C 94.039 256.771,104.241 246.236,109.290 239.669 C 110.578 237.994,111.915 236.322,112.261 235.954 C 112.608 235.586,113.732 234.231,114.759 232.943 C 115.787 231.655,116.733 230.554,116.862 230.497 C 116.991 230.440,117.096 230.245,117.096 230.063 C 117.096 229.522,120.637 225.363,121.231 225.207 C 121.533 225.128,121.780 224.809,121.780 224.498 C 121.780 224.187,121.956 223.747,122.170 223.520 C 122.385 223.293,123.374 222.101,124.368 220.872 C 125.362 219.643,126.389 218.555,126.651 218.454 C 126.913 218.354,127.040 218.130,126.933 217.957 C 126.827 217.784,126.958 217.642,127.226 217.642 C 127.494 217.642,127.713 217.463,127.713 217.243 C 127.713 217.023,128.011 216.637,128.375 216.384 C 128.740 216.132,129.222 215.749,129.446 215.535 C 129.670 215.320,129.933 215.144,130.030 215.144 C 130.393 215.144,131.772 213.768,131.772 213.405 C 131.772 213.197,132.315 212.809,132.980 212.543 C 133.714 212.249,134.256 211.796,134.364 211.385 C 134.461 211.014,134.685 210.799,134.861 210.908 C 135.251 211.149,136.456 210.443,136.456 209.973 C 136.456 209.532,137.910 208.272,138.147 208.508 C 138.247 208.609,138.329 208.458,138.329 208.173 C 138.329 207.889,138.610 207.480,138.954 207.266 C 139.297 207.051,139.578 206.657,139.578 206.389 C 139.578 206.121,140.141 205.318,140.827 204.603 C 141.514 203.888,142.077 203.157,142.077 202.978 C 142.077 202.671,142.531 202.521,143.130 202.630 C 143.517 202.701,144.575 201.693,144.575 201.253 C 144.575 201.051,144.961 200.692,145.433 200.456 C 145.906 200.219,146.643 199.667,147.073 199.230 C 147.502 198.793,148.217 198.153,148.662 197.807 C 149.107 197.461,149.643 196.857,149.853 196.465 C 150.063 196.072,150.471 195.791,150.761 195.838 C 151.374 195.938,152.693 194.894,152.693 194.310 C 152.693 194.091,152.904 193.911,153.162 193.911 C 153.419 193.911,153.630 193.681,153.630 193.399 C 153.630 192.844,153.876 192.617,156.390 190.861 C 158.446 189.424,160.145 188.366,160.968 188.009 C 161.311 187.860,161.860 187.440,162.187 187.077 C 162.515 186.714,162.911 186.417,163.068 186.417 C 163.375 186.417,165.804 184.804,166.487 184.148 C 167.252 183.412,171.110 181.693,171.482 181.922 C 172.106 182.308,173.614 182.229,173.614 181.811 C 173.614 181.596,173.474 181.421,173.302 181.421 C 172.572 181.421,173.078 180.728,174.128 180.289 C 175.063 179.898,175.312 179.887,175.524 180.227 C 175.730 180.557,176.051 180.499,177.118 179.937 C 178.524 179.196,179.404 179.022,179.079 179.547 C 178.973 179.719,179.017 179.859,179.178 179.859 C 179.566 179.859,180.212 179.067,179.998 178.853 C 179.906 178.761,180.201 178.592,180.654 178.479 C 181.173 178.348,181.417 178.116,181.315 177.848 C 181.198 177.543,182.052 177.138,184.376 176.399 C 187.217 175.495,187.560 175.310,187.268 174.843 C 186.888 174.234,186.400 174.328,183.126 175.637 C 181.999 176.088,180.814 176.373,180.493 176.271 C 180.125 176.155,179.689 176.321,179.315 176.723 C 178.790 177.287,177.922 177.570,174.799 178.196 C 174.335 178.289,173.727 178.712,173.449 179.137 C 173.170 179.563,172.753 179.836,172.518 179.745 C 172.285 179.656,172.049 179.697,171.995 179.838 C 171.941 179.979,170.562 180.754,168.931 181.562 C 167.299 182.369,165.683 183.281,165.340 183.587 C 164.996 183.894,163.240 185.097,161.436 186.261 C 159.633 187.426,157.363 188.921,156.391 189.583 C 155.419 190.246,154.535 190.788,154.426 190.788 C 154.317 190.788,154.058 190.932,153.851 191.106 C 152.421 192.313,151.943 192.662,151.723 192.662 C 151.585 192.662,151.109 193.026,150.664 193.471 C 150.214 193.921,149.654 194.202,149.401 194.105 C 149.132 194.002,148.946 194.115,148.946 194.383 C 148.946 194.632,148.384 195.122,147.697 195.472 C 147.010 195.823,146.448 196.317,146.448 196.572 C 146.448 196.826,146.315 197.034,146.152 197.034 C 145.989 197.034,145.462 197.383,144.981 197.809 C 143.535 199.092,143.381 199.208,142.197 199.906 C 141.571 200.276,140.753 200.869,140.379 201.226 C 140.005 201.582,138.970 202.506,138.080 203.279 C 137.189 204.052,136.039 205.268,135.523 205.982 C 135.008 206.695,133.492 208.382,132.155 209.729 C 130.817 211.076,129.310 212.792,128.806 213.543 C 128.301 214.294,127.567 215.118,127.176 215.374 C 126.784 215.631,126.461 216.000,126.457 216.195 C 126.454 216.390,125.253 218.025,123.788 219.828 C 122.323 221.632,119.947 224.582,118.506 226.386 C 117.066 228.189,114.719 231.127,113.291 232.914 C 111.863 234.701,109.521 237.652,108.087 239.471 C 102.680 246.328,99.004 250.181,88.350 260.155 C 86.213 262.155,83.836 264.333,83.067 264.995 C 82.298 265.657,81.374 266.484,81.013 266.833 C 80.036 267.779,77.173 269.789,76.804 269.789 C 76.628 269.789,76.404 269.995,76.308 270.246 C 76.153 270.649,75.232 271.136,74.540 271.179 C 74.405 271.187,74.180 271.379,74.040 271.605 C 73.900 271.832,73.589 272.046,73.349 272.083 C 73.108 272.119,72.701 272.280,72.444 272.441 C 72.186 272.601,71.695 272.738,71.351 272.744 C 71.007 272.750,70.761 272.931,70.804 273.146 C 70.847 273.361,70.777 273.520,70.648 273.499 C 70.519 273.479,70.343 273.489,70.258 273.521 C 70.172 273.553,69.680 273.632,69.165 273.697 C 67.101 273.958,66.198 274.204,66.198 274.508 C 66.198 274.695,66.490 274.738,66.901 274.611 C 67.287 274.493,67.491 274.514,67.353 274.658 C 66.885 275.150,55.747 275.391,52.459 274.980 C 51.343 274.840,50.008 274.541,49.493 274.314 C 48.977 274.088,47.893 273.805,47.083 273.685 C 46.272 273.566,45.447 273.273,45.249 273.034 C 45.051 272.795,44.693 272.600,44.454 272.600 C 44.215 272.600,43.776 272.480,43.477 272.334 C 43.179 272.187,42.235 271.731,41.380 271.319 C 39.659 270.490,36.738 268.502,34.817 266.852 C 32.473 264.838,31.538 263.957,31.538 263.761 C 31.538 263.653,31.081 263.099,30.523 262.528 C 29.396 261.378,27.690 259.002,27.384 258.158 C 27.275 257.857,27.041 257.611,26.864 257.611 C 26.687 257.611,26.542 257.415,26.542 257.175 C 26.542 256.934,26.120 255.937,25.605 254.957 C 25.090 253.978,24.668 252.927,24.668 252.622 C 24.668 252.317,24.473 251.905,24.234 251.707 C 23.995 251.508,23.722 250.964,23.629 250.497 C 23.535 250.031,23.301 249.016,23.110 248.244 C 22.170 244.447,21.809 239.732,22.204 236.396 C 22.511 233.800,22.510 233.108,22.202 233.006 C 21.948 232.921,22.041 232.717,22.472 232.416 C 23.002 232.044,23.102 231.718,22.989 230.730 C 22.911 230.056,22.962 229.575,23.101 229.661 C 23.377 229.831,23.731 229.106,23.731 228.371 C 23.731 228.102,23.581 228.003,23.371 228.133 C 22.787 228.494,23.454 227.538,24.123 227.056 C 24.518 226.772,24.677 226.336,24.612 225.717 C 24.554 225.156,24.697 224.685,24.982 224.504 C 25.239 224.342,25.327 224.207,25.178 224.205 C 25.028 224.202,25.300 223.684,25.781 223.054 C 26.262 222.423,26.454 222.012,26.208 222.140 C 25.962 222.268,26.005 222.173,26.303 221.928 C 26.601 221.684,26.756 221.396,26.648 221.288 C 26.541 221.180,26.682 221.004,26.964 220.896 C 27.245 220.788,27.397 220.573,27.301 220.418 C 27.205 220.263,27.346 220.052,27.613 219.949 C 27.881 219.847,28.021 219.636,27.925 219.481 C 27.830 219.326,27.971 219.115,28.239 219.012 C 28.508 218.909,28.728 218.676,28.728 218.494 C 28.728 218.015,28.667 218.078,39.384 207.331 C 44.783 201.917,50.105 196.299,51.211 194.847 C 52.316 193.395,54.002 191.290,54.957 190.170 C 55.911 189.050,57.953 186.462,59.494 184.417 C 61.034 182.373,63.285 179.563,64.494 178.172 C 65.703 176.782,67.933 174.098,69.448 172.209 C 82.332 156.146,101.803 138.560,118.345 128.046 C 119.805 127.118,122.574 125.294,124.499 123.992 C 126.423 122.689,128.559 121.301,129.245 120.906 C 130.064 120.435,130.432 120.033,130.318 119.735 C 130.071 119.093,129.608 119.203,128.181 120.245 M285.090 167.213 C 284.801 167.561,284.128 167.666,282.475 167.622 L 280.250 167.563 282.123 167.449 C 283.154 167.386,284.130 167.202,284.294 167.040 C 284.824 166.512,285.542 166.669,285.090 167.213 M196.101 215.137 C 195.831 215.641,195.858 215.721,196.246 215.572 C 196.507 215.472,196.721 215.194,196.721 214.955 C 196.721 214.345,196.488 214.414,196.101 215.137 M21.142 240.827 C 21.067 241.214,21.006 240.898,21.006 240.125 C 21.006 239.352,21.067 239.036,21.142 239.422 C 21.216 239.809,21.216 240.441,21.142 240.827 M190.978 240.307 C 190.861 240.611,190.931 240.754,191.159 240.678 C 191.626 240.522,191.883 239.813,191.472 239.813 C 191.305 239.813,191.082 240.035,190.978 240.307 M43.560 273.224 C 44.162 273.483,44.160 273.493,43.500 273.514 C 43.124 273.526,42.729 273.396,42.623 273.224 C 42.395 272.855,42.700 272.855,43.560 273.224 " stroke="none" fill="#807c3b" fill-rule="evenodd"></path><path id="path4" d="M238.642 38.250 C 238.165 38.792,238.135 39.344,238.582 39.344 C 238.764 39.344,238.825 39.486,238.718 39.659 C 238.391 40.188,245.581 46.526,246.508 46.526 C 246.775 46.526,246.995 46.667,246.995 46.838 C 246.995 47.010,246.442 47.151,245.766 47.151 C 244.189 47.151,243.144 47.558,241.621 48.764 C 240.154 49.926,240.405 50.629,242.077 50.042 C 242.635 49.847,243.628 49.590,244.285 49.473 C 244.941 49.355,245.889 48.912,246.392 48.489 C 247.196 47.813,247.307 47.788,247.307 48.281 C 247.307 49.300,250.226 54.645,250.782 54.645 C 251.727 54.645,251.980 52.336,251.355 49.420 C 251.035 47.929,250.768 47.629,248.868 46.629 C 248.124 46.237,248.157 46.218,249.575 46.216 C 250.393 46.215,251.306 46.078,251.605 45.913 C 252.416 45.462,255.048 44.340,255.294 44.340 C 257.153 44.340,257.565 40.453,255.738 40.161 C 255.051 40.051,254.489 39.823,254.489 39.653 C 254.489 39.481,253.588 39.344,252.459 39.344 C 251.314 39.344,250.429 39.480,250.429 39.657 C 250.429 39.828,250.169 39.969,249.851 39.969 C 248.601 39.969,247.359 40.651,246.990 41.540 C 246.323 43.151,245.811 43.296,245.568 41.943 C 245.301 40.454,244.073 39.195,242.369 38.663 C 241.650 38.439,241.062 38.149,241.062 38.019 C 241.062 37.600,239.045 37.792,238.642 38.250 M167.738 88.485 C 165.760 88.838,164.899 89.368,163.864 90.867 C 163.362 91.594,163.302 91.609,162.981 91.085 C 161.461 88.602,153.318 88.229,153.318 90.643 C 153.318 90.798,153.599 90.998,153.942 91.088 C 154.286 91.178,154.567 91.359,154.567 91.491 C 154.567 91.622,155.116 91.737,155.788 91.747 C 156.460 91.756,157.268 91.904,157.584 92.077 C 157.899 92.249,158.559 92.475,159.049 92.579 C 159.811 92.741,159.904 92.869,159.692 93.457 C 159.275 94.610,159.457 97.576,160.018 98.758 C 160.847 100.503,161.299 100.435,162.229 98.423 C 162.682 97.444,163.180 96.399,163.337 96.101 C 163.494 95.803,163.622 94.925,163.622 94.149 C 163.622 92.696,164.004 92.329,164.518 93.286 C 165.169 94.497,171.741 96.753,171.741 95.766 C 171.741 95.469,170.289 93.990,169.988 93.980 C 169.836 93.975,169.091 93.434,168.333 92.779 L 166.955 91.588 167.865 91.128 C 169.779 90.162,171.741 88.679,171.741 88.198 C 171.741 87.970,169.869 88.104,167.738 88.485 " stroke="none" fill="#fceb0e" fill-rule="evenodd"></path></g></svg>